<svg width="16" height="16" viewBox="0 0 16 16" fill="none" xmlns="http://www.w3.org/2000/svg">
<path fill-rule="evenodd" clip-rule="evenodd" d="M6.07741 2.07806C6.23369 1.92178 6.44565 1.83398 6.66667 1.83398H9.33333C9.55435 1.83398 9.76631 1.92178 9.92259 2.07806C10.0789 2.23434 10.1667 2.4463 10.1667 2.66732V3.50065H5.83333V2.66732C5.83333 2.4463 5.92113 2.23434 6.07741 2.07806ZM4.83333 3.50065V2.66732C4.83333 2.18109 5.02649 1.71477 5.3703 1.37096C5.71412 1.02714 6.18044 0.833984 6.66667 0.833984H9.33333C9.81956 0.833984 10.2859 1.02714 10.6297 1.37096C10.9735 1.71477 11.1667 2.18109 11.1667 2.66732V3.50065H12.6667H14C14.2761 3.50065 14.5 3.72451 14.5 4.00065C14.5 4.27679 14.2761 4.50065 14 4.50065H13.1667V13.334C13.1667 13.8202 12.9735 14.2865 12.6297 14.6303C12.2859 14.9742 11.8196 15.1673 11.3333 15.1673H4.66667C4.18044 15.1673 3.71412 14.9742 3.3703 14.6303C3.02649 14.2865 2.83333 13.8202 2.83333 13.334V4.50065H2C1.72386 4.50065 1.5 4.27679 1.5 4.00065C1.5 3.72451 1.72386 3.50065 2 3.50065H3.33333H4.83333ZM3.83333 4.50065V13.334C3.83333 13.555 3.92113 13.767 4.07741 13.9232C4.23369 14.0795 4.44565 14.1673 4.66667 14.1673H11.3333C11.5543 14.1673 11.7663 14.0795 11.9226 13.9232C12.0789 13.767 12.1667 13.555 12.1667 13.334V4.50065H10.6667H5.33333H3.83333ZM6.66667 6.83398C6.94281 6.83398 7.16667 7.05784 7.16667 7.33398V11.334C7.16667 11.6101 6.94281 11.834 6.66667 11.834C6.39052 11.834 6.16667 11.6101 6.16667 11.334V7.33398C6.16667 7.05784 6.39052 6.83398 6.66667 6.83398ZM9.83333 7.33398C9.83333 7.05784 9.60948 6.83398 9.33333 6.83398C9.05719 6.83398 8.83333 7.05784 8.83333 7.33398V11.334C8.83333 11.6101 9.05719 11.834 9.33333 11.834C9.60948 11.834 9.83333 11.6101 9.83333 11.334V7.33398Z" fill="currentColor"/>
</svg>
