<svg width="25" height="24" viewBox="0 0 25 24" fill="none" xmlns="http://www.w3.org/2000/svg">
<path d="M14.888 5.82261C15.8232 6.00472 16.6827 6.46123 17.3565 7.1337C18.0302 7.80617 18.4876 8.66402 18.6701 9.59743M14.888 2C16.831 2.21544 18.6429 3.08388 20.0261 4.46272C21.4093 5.84157 22.2817 7.64887 22.5 9.58788M21.5425 17.214V20.0809C21.5436 20.3471 21.489 20.6105 21.3821 20.8544C21.2753 21.0983 21.1186 21.3172 20.9221 21.4971C20.7256 21.677 20.4937 21.814 20.2411 21.8993C19.9885 21.9845 19.7208 22.0162 19.4552 21.9922C16.5089 21.6727 13.6787 20.6678 11.1921 19.0584C8.87869 17.5911 6.9173 15.6335 5.44724 13.3245C3.82908 10.8314 2.82206 7.99289 2.50777 5.03897C2.48384 4.7747 2.51531 4.50836 2.60017 4.25689C2.68503 4.00543 2.82141 3.77435 3.00065 3.57838C3.17989 3.3824 3.39804 3.22582 3.64123 3.11861C3.88442 3.0114 4.14731 2.9559 4.41316 2.95565H7.28561C7.75028 2.95109 8.20076 3.11532 8.55309 3.41774C8.90541 3.72016 9.13554 4.14013 9.20057 4.59937C9.32181 5.51686 9.54665 6.41772 9.87081 7.28476C9.99963 7.62681 10.0275 7.99855 9.95115 8.35593C9.87478 8.71331 9.69737 9.04135 9.43994 9.30118L8.22394 10.5149C9.58697 12.9074 11.5717 14.8883 13.9688 16.2488L15.1848 15.0351C15.4452 14.7782 15.7738 14.6011 16.1319 14.5249C16.49 14.4486 16.8624 14.4765 17.2051 14.6051C18.0738 14.9286 18.9764 15.153 19.8956 15.274C20.3608 15.3395 20.7855 15.5733 21.0892 15.931C21.3928 16.2887 21.5542 16.7453 21.5425 17.214Z" stroke="currentColor" stroke-width="2" stroke-linecap="round" stroke-linejoin="round"/>
</svg>
