<svg width="32" height="32" viewBox="0 0 32 32" fill="none" xmlns="http://www.w3.org/2000/svg">
<g clip-path="url(#clip0_6507_2543)">
<path d="M30.1431 25.2863C30.1431 25.9683 29.8722 26.6223 29.39 27.1045C28.9077 27.5868 28.2537 27.8577 27.5717 27.8577H4.42885C3.74687 27.8577 3.09281 27.5868 2.61058 27.1045C2.12834 26.6223 1.85742 25.9683 1.85742 25.2863V11.1434C1.85742 10.4614 2.12834 9.80738 2.61058 9.32514C3.09281 8.8429 3.74687 8.57199 4.42885 8.57199H9.57171L12.1431 4.71484H19.8574L22.4289 8.57199H27.5717C28.2537 8.57199 28.9077 8.8429 29.39 9.32514C29.8722 9.80738 30.1431 10.4614 30.1431 11.1434V25.2863Z" stroke="currentColor" stroke-width="2" stroke-linecap="round" stroke-linejoin="round"/>
<path d="M16.0003 22.7144C18.8406 22.7144 21.1431 20.4119 21.1431 17.5716C21.1431 14.7312 18.8406 12.4287 16.0003 12.4287C13.16 12.4287 10.8574 14.7312 10.8574 17.5716C10.8574 20.4119 13.16 22.7144 16.0003 22.7144Z" stroke="currentColor" stroke-width="2" stroke-linecap="round" stroke-linejoin="round"/>
</g>
<defs>
<clipPath id="clip0_6507_2543">
<rect width="30.8571" height="30.8571" fill="white" transform="translate(0.571289 0.857422)"/>
</clipPath>
</defs>
</svg>
