<svg width="24" height="24" viewBox="0 0 24 24" fill="none" xmlns="http://www.w3.org/2000/svg">
<path fill-rule="evenodd" clip-rule="evenodd" d="M8.01942 0.803884C8.1129 0.33646 8.52332 0 9 0H15C15.4767 0 15.8871 0.33646 15.9806 0.803884L16.9652 5.72687C18.814 7.19223 20 9.45762 20 12C20 14.5424 18.814 16.8078 16.9652 18.2731L15.9806 23.1961C15.8871 23.6635 15.4767 24 15 24H9C8.52332 24 8.1129 23.6635 8.01942 23.1961L7.03482 18.2731C5.18595 16.8078 4 14.5424 4 12C4 9.45762 5.18595 7.19223 7.03482 5.72687L8.01942 0.803884ZM14.1802 2L14.6716 4.45696C13.8361 4.16104 12.9369 4 12 4C11.0631 4 10.1639 4.16104 9.32841 4.45696L9.8198 2H14.1802ZM6 12C6 8.68629 8.68629 6 12 6C15.3137 6 18 8.68629 18 12C18 15.3137 15.3137 18 12 18C8.68629 18 6 15.3137 6 12ZM14.6716 19.543C13.8361 19.839 12.9369 20 12 20C11.0631 20 10.1639 19.839 9.32841 19.543L9.8198 22H14.1802L14.6716 19.543ZM13 9C13 8.44771 12.5523 8 12 8C11.4477 8 11 8.44771 11 9V12C11 12.4304 11.2754 12.8126 11.6838 12.9487L14.6838 13.9487C15.2077 14.1233 15.774 13.8402 15.9487 13.3162C16.1233 12.7923 15.8402 12.226 15.3162 12.0513L13 11.2792V9Z" fill="currentColor"/>
</svg>
