<svg width="24" height="24" viewBox="0 0 24 24" fill="none" xmlns="http://www.w3.org/2000/svg">
<path fill-rule="evenodd" clip-rule="evenodd" d="M12.6139 1.21065C12.2528 0.929784 11.7472 0.929784 11.3861 1.21065L2.38606 8.21065C2.14247 8.4001 2 8.69141 2 9V20C2 20.7957 2.31607 21.5587 2.87868 22.1213C3.44129 22.6839 4.20435 23 5 23H19C19.7957 23 20.5587 22.6839 21.1213 22.1213C21.6839 21.5587 22 20.7957 22 20V9C22 8.69141 21.8575 8.4001 21.6139 8.21065L12.6139 1.21065ZM4 20V9.48908L12 3.26686L20 9.48908V20C20 20.2652 19.8946 20.5196 19.7071 20.7071C19.5196 20.8946 19.2652 21 19 21H5C4.73478 21 4.48043 20.8946 4.29289 20.7071C4.10536 20.5196 4 20.2652 4 20ZM14.3679 8C13.8865 8 13.4106 8.09792 12.9676 8.28731C12.6142 8.43842 12.2879 8.64513 11.9998 8.89861C11.3463 8.32365 10.5079 8.00026 9.6318 8.00026C8.65829 8.00026 7.73123 8.39961 7.05273 9.09973C6.37526 9.79879 6 10.7404 6 11.7159C6 12.6914 6.37526 13.6331 7.05273 14.3321L7.55983 14.8554L11.2818 18.6959C11.4701 18.8903 11.7292 19 11.9999 19C12.2705 19 12.5296 18.8903 12.718 18.6959L16.4399 14.8554L16.9469 14.3323C17.2827 13.986 17.5475 13.5764 17.7276 13.1279C17.9077 12.6794 18 12.1997 18 11.7159C18 11.2322 17.9077 10.7525 17.7276 10.304C17.5475 9.85546 17.2827 9.44592 16.9469 9.09957C16.6112 8.75315 16.211 8.4766 15.7683 8.28731C15.3253 8.09792 14.8494 8 14.3679 8ZM15.5106 10.4914L16.2289 9.79571L15.511 10.4918C15.6641 10.6497 15.7871 10.8389 15.8716 11.0493C15.9561 11.2597 16 11.4864 16 11.7159C16 11.9455 15.9561 12.1721 15.8716 12.3826C15.7871 12.593 15.6641 12.7822 15.511 12.9401L15.5108 12.9403L15.0037 13.4635L11.9999 16.5631L8.99605 13.4635L8.48895 12.9403C8.1793 12.6208 8 12.1809 8 11.7159C8 11.251 8.1793 10.8111 8.48895 10.4916C8.79756 10.1731 9.20933 10.0003 9.6318 10.0003C10.0543 10.0003 10.466 10.1731 10.7747 10.4916L11.2818 11.0149C11.4701 11.2092 11.7292 11.3189 11.9999 11.3189C12.2705 11.3189 12.5296 11.2092 12.718 11.0149L13.2251 10.4916L13.2252 10.4914C13.3782 10.3335 13.5581 10.21 13.7539 10.1263C13.9495 10.0426 14.1581 10 14.3679 10C14.5778 10 14.7863 10.0426 14.982 10.1263C15.1777 10.21 15.3577 10.3335 15.5106 10.4914Z" fill="currentColor"/>
</svg>
