<svg width="24" height="24" viewBox="0 0 24 24" fill="none" xmlns="http://www.w3.org/2000/svg">
<path fill-rule="evenodd" clip-rule="evenodd" d="M1.86433 3.45366C1.31716 3.52866 0.934386 4.03302 1.00938 4.58019L1.55256 8.54314C1.6063 8.93527 1.88056 9.24296 2.23306 9.35825C2.08758 9.53192 1.99999 9.75573 1.99999 10V22C1.99999 22.5523 2.44771 23 2.99999 23H21C21.5523 23 22 22.5523 22 22V10C22 9.44772 21.5523 9.00001 21 9.00001H19.0116C19.0044 8.99993 18.9971 8.99993 18.9899 9.00001H15.0116H14.9899H11.0116H10.9899H5.58343L10.5948 8.31314L10.6166 8.31015L14.5635 7.76918L14.5737 7.76778L20.5124 6.95381C21.0595 6.87881 21.4423 6.37444 21.3673 5.82728L20.8241 1.86433C20.7491 1.31716 20.2448 0.934387 19.6976 1.00938L14.7603 1.6861C14.7487 1.68748 14.7372 1.68907 14.7256 1.69085L10.7945 2.22967C10.7849 2.23085 10.7753 2.23216 10.7657 2.23362L6.82784 2.77335L6.80652 2.77627L1.86433 3.45366ZM17 11H15.5L14 13H15.5L17 11ZM15.9884 15C15.9956 15.0001 16.0029 15.0001 16.0101 15H20V21H3.99999V15H7.98835H8.0101H11.9884H12.0101H15.9884ZM18 13L19.5 11H20V13H18ZM13.0339 3.94142L14.52 3.73774L16.2777 5.51552L14.7916 5.71921L13.0339 3.94142ZM16.9969 3.39825L18.7546 5.17604L19.25 5.10813L18.9784 3.12665L16.9969 3.39825ZM13 11H11.5L9.99999 13H11.5L13 11ZM12.3148 6.05869L10.5571 4.28091L9.071 4.48459L10.8287 6.26238L12.3148 6.05869ZM8.99999 11H3.99999V13H7.49999L8.99999 11ZM8.35185 6.60186L6.59416 4.82408L3.12665 5.29934L3.39824 7.28082L8.35185 6.60186Z" fill="currentColor"/>
</svg>
