<svg width="49" height="48" viewBox="0 0 49 48" fill="none" xmlns="http://www.w3.org/2000/svg">
<path fill-rule="evenodd" clip-rule="evenodd" d="M10.166 7C9.37037 7 8.6073 7.31607 8.0447 7.87868C7.48209 8.44129 7.16602 9.20435 7.16602 10V39.5858L13.4589 33.2929C13.6464 33.1054 13.9008 33 14.166 33H38.166C38.9617 33 39.7247 32.6839 40.2873 32.1213C40.8499 31.5587 41.166 30.7956 41.166 30V10C41.166 9.20435 40.8499 8.44129 40.2873 7.87868C39.7247 7.31607 38.9617 7 38.166 7H10.166ZM6.63048 6.46447C7.56816 5.52678 8.83993 5 10.166 5H38.166C39.4921 5 40.7639 5.52678 41.7015 6.46447C42.6392 7.40215 43.166 8.67392 43.166 10V30C43.166 31.3261 42.6392 32.5979 41.7015 33.5355C40.7639 34.4732 39.4921 35 38.166 35H14.5802L6.87312 42.7071C6.58712 42.9931 6.15701 43.0787 5.78333 42.9239C5.40966 42.7691 5.16602 42.4045 5.16602 42V10C5.16602 8.67392 5.6928 7.40215 6.63048 6.46447ZM15.166 16C15.166 15.4477 15.6137 15 16.166 15H32.166C32.7183 15 33.166 15.4477 33.166 16C33.166 16.5523 32.7183 17 32.166 17H16.166C15.6137 17 15.166 16.5523 15.166 16ZM16.166 23C15.6137 23 15.166 23.4477 15.166 24C15.166 24.5523 15.6137 25 16.166 25H28.166C28.7183 25 29.166 24.5523 29.166 24C29.166 23.4477 28.7183 23 28.166 23H16.166Z" fill="#666666"/>
</svg>
