<svg width="16" height="16" viewBox="0 0 16 16" fill="none" xmlns="http://www.w3.org/2000/svg">
<path fill-rule="evenodd" clip-rule="evenodd" d="M0.818838 8.586L3.5097 8.09032C3.81844 8.03344 4.08256 7.83488 4.22296 7.55408L5.72361 4.55279C5.893 4.214 6.23926 4 6.61803 4H13.2203C13.6137 4 13.9705 4.23066 14.1321 4.58935L15.9118 8.54099C15.9699 8.67009 16 8.81006 16 8.95164V12.4667C16 12.7612 15.7612 13 15.4667 13H0.533333C0.238781 13 0 12.7612 0 12.4667V9.56946C0 9.08704 0.344407 8.6734 0.818838 8.586ZM6.43874 6.68377L6.77208 5.68377C6.90819 5.27543 7.29033 5 7.72076 5H11.2792C11.7097 5 12.0918 5.27543 12.2279 5.68377L12.5613 6.68377C12.7771 7.3313 12.2951 8 11.6126 8H7.38743C6.70487 8 6.2229 7.3313 6.43874 6.68377Z" fill="#00CAD7"/>
<circle cx="3" cy="13" r="2" fill="#00CAD7"/>
<circle cx="12" cy="13" r="2" fill="#00CAD7"/>
</svg>
