<svg width="16" height="16" viewBox="0 0 16 16" fill="none" xmlns="http://www.w3.org/2000/svg">
<circle cx="3" cy="13" r="2" fill="#00CAD7"/>
<circle cx="12" cy="13" r="2" fill="#00CAD7"/>
<path fill-rule="evenodd" clip-rule="evenodd" d="M0.142507 7.76249L2.7087 3.4855C2.88942 3.1843 3.21493 3 3.56619 3H5.86667H15C15.5523 3 16 3.44772 16 4V7.73684V12.4667C16 12.7612 15.7612 13 15.4667 13H0.533333C0.238781 13 0 12.7612 0 12.4667V8.27698C0 8.09574 0.0492578 7.9179 0.142507 7.76249ZM2.72361 6.55279L3.72361 4.55279C3.893 4.214 4.23926 4 4.61803 4H6C6.55228 4 7 4.44772 7 5V7C7 7.55228 6.55228 8 6 8H3.61803C2.87465 8 2.39116 7.21769 2.72361 6.55279Z" fill="#00CAD7"/>
</svg>
