<svg width="24" height="24" viewBox="0 0 24 24" fill="none" xmlns="http://www.w3.org/2000/svg">
<path d="M19.286 15.9606L20.27 15.7822L20.27 15.7822L19.286 15.9606ZM19.7893 16.8715L19.0145 17.5037L19.7893 16.8715ZM20.0055 14.2743L20.5577 15.1081L20.0055 14.2743ZM21.0908 13.9448L21.2258 14.9356V14.9356L21.0908 13.9448ZM22.4142 13.4142L21.7071 12.7071V12.7071L22.4142 13.4142ZM22.4142 10.5858L23.1213 9.87868L23.1213 9.87868L22.4142 10.5858ZM21.0495 10.0542L21.1686 9.06134L21.1686 9.06134L21.0495 10.0542ZM19.9255 9.72569L19.3734 10.5594V10.5594L19.9255 9.72569ZM19.206 7.95941L18.222 7.781L18.222 7.781L19.206 7.95941ZM19.7396 6.92424L18.9311 6.3358V6.3358L19.7396 6.92424ZM20.1441 4.85912L19.2203 5.24206V5.24206L20.1441 4.85912ZM19.71 4.21L19.0025 4.91671L19.0033 4.9175L19.71 4.21ZM16.9958 4.1804L16.4073 3.37186V3.37186L16.9958 4.1804ZM15.9606 4.714L15.7822 3.73005L15.9606 4.714ZM14.2743 3.99447L13.4406 4.54661L13.4406 4.54661L14.2743 3.99447ZM13.9448 2.90921L14.9356 2.7742V2.7742L13.9448 2.90921ZM13.4142 1.58579L12.7071 2.29289V2.29289L13.4142 1.58579ZM10.5858 1.58579L11.2929 2.29289V2.29289L10.5858 1.58579ZM10.0542 2.95047L9.06134 2.83136L9.06134 2.83136L10.0542 2.95047ZM9.72569 4.07447L8.89195 3.52232V3.52232L9.72569 4.07447ZM7.95941 4.794L7.781 5.77796H7.781L7.95941 4.794ZM7.04852 4.2907L6.41629 5.06548L6.41629 5.06548L7.04852 4.2907ZM6.39088 3.85588L6.00794 4.77965L6.00794 4.77965L6.39088 3.85588ZM4.85912 3.85588L5.24206 4.77965L5.24206 4.77965L4.85912 3.85588ZM4.21 4.29L4.91671 4.9975L4.9175 4.99671L4.21 4.29ZM3.77588 4.93912L4.69965 5.32206L4.69965 5.32206L3.77588 4.93912ZM3.77588 6.47088L4.69965 6.08794L4.69965 6.08794L3.77588 6.47088ZM4.2107 7.12852L4.98548 6.49629H4.98548L4.2107 7.12852ZM4.714 8.03941L5.69796 7.861L4.714 8.03941ZM4.6 9L3.68514 8.59623C3.67663 8.61551 3.66874 8.63505 3.66146 8.65482L4.6 9ZM4.0113 9.77251L3.42955 8.95914L3.42955 8.95914L4.0113 9.77251ZM2.89806 10.1341L3.04405 11.1234H3.04405L2.89806 10.1341ZM1.58579 10.6658L2.29289 11.3729H2.29289L1.58579 10.6658ZM1.58579 13.4942L2.29289 12.7871H2.29289L1.58579 13.4942ZM2.95047 14.0258L2.83136 15.0187L2.83136 15.0187L2.95047 14.0258ZM4.07447 14.3543L3.52232 15.1881H3.52232L4.07447 14.3543ZM4.68 15.08L3.76081 15.474L3.76514 15.4838L4.68 15.08ZM4.794 16.0406L5.77796 16.219L4.794 16.0406ZM4.2907 16.9515L5.06548 17.5837L5.06549 17.5837L4.2907 16.9515ZM3.85588 17.6091L2.93211 17.2262L2.93211 17.2262L3.85588 17.6091ZM4.29 19.79L4.9975 19.0833L4.99671 19.0825L4.29 19.79ZM4.93912 20.2241L5.32206 19.3003H5.32206L4.93912 20.2241ZM6.47088 20.2241L6.08794 19.3003L6.08794 19.3003L6.47088 20.2241ZM7.12852 19.7893L7.76075 20.5641L7.76075 20.5641L7.12852 19.7893ZM8.03941 19.286L8.21782 20.27H8.21782L8.03941 19.286ZM9 19.4L8.59623 20.3149C8.61551 20.3234 8.63505 20.3313 8.65482 20.3385L9 19.4ZM9.77251 19.9887L8.95914 20.5704H8.95914L9.77251 19.9887ZM10.1341 21.1019L11.1234 20.9559L10.1341 21.1019ZM13.4942 22.4142L14.2013 23.1213L14.2013 23.1213L13.4942 22.4142ZM14.0258 21.0495L15.0187 21.1686L15.0187 21.1686L14.0258 21.0495ZM14.3543 19.9255L13.5206 19.3734H13.5206L14.3543 19.9255ZM15.08 19.32L15.474 20.2392L15.4838 20.2349L15.08 19.32ZM16.9 19.65L17.6071 18.9429L17.5993 18.9351L16.9 19.65ZM17.6091 20.1441L17.9921 19.2203H17.9921L17.6091 20.1441ZM20.2241 17.5291L19.3003 17.9121L19.3003 17.9121L20.2241 17.5291ZM18.302 16.139C18.423 16.8061 18.814 17.2579 19.0145 17.5037L20.5641 16.2393C20.3276 15.9494 20.2861 15.8713 20.27 15.7822L18.302 16.139ZM19.4534 13.4406C18.577 14.0209 18.1145 15.1045 18.302 16.139L20.27 15.7822C20.2251 15.5347 20.3477 15.2471 20.5577 15.1081L19.4534 13.4406ZM20.9558 12.954C20.6117 13.0009 20.0161 13.0679 19.4534 13.4406L20.5577 15.1081C20.6856 15.0234 20.8311 14.9894 21.2258 14.9356L20.9558 12.954ZM21.7071 12.7071C21.5656 12.8486 21.4322 12.889 20.9558 12.954L21.2258 14.9356C21.669 14.8753 22.4518 14.7908 23.1213 14.1213L21.7071 12.7071ZM22 12C22 12.2652 21.8946 12.5196 21.7071 12.7071L23.1213 14.1213C23.6839 13.5587 24 12.7956 24 12H22ZM21.7071 11.2929C21.8946 11.4804 22 11.7348 22 12H24C24 11.2044 23.6839 10.4413 23.1213 9.87868L21.7071 11.2929ZM20.9304 11.0471C21.4221 11.1061 21.56 11.1458 21.7071 11.2929L23.1213 9.87868C22.4324 9.18978 21.6253 9.11611 21.1686 9.06134L20.9304 11.0471ZM19.3734 10.5594C19.956 10.9453 20.5742 11.0044 20.9304 11.0471L21.1686 9.06134C20.7591 9.01221 20.6094 8.97917 20.4777 8.89195L19.3734 10.5594ZM18.222 7.781C18.0361 8.80661 18.4433 9.94351 19.3734 10.5594L20.4777 8.89195C20.2749 8.75764 20.1332 8.45078 20.19 8.13782L18.222 7.781ZM18.9311 6.3358C18.722 6.62308 18.3422 7.11837 18.222 7.781L20.19 8.13782C20.2157 7.99609 20.2966 7.85834 20.5481 7.51268L18.9311 6.3358ZM19.2966 5.625C19.2966 5.78899 19.2327 5.92133 18.9311 6.3358L20.5481 7.51268C20.8035 7.16179 21.2966 6.52889 21.2966 5.625H19.2966ZM19.2203 5.24206C19.2707 5.36346 19.2966 5.49359 19.2966 5.625H21.2966C21.2966 5.23075 21.2189 4.84037 21.0679 4.47618L19.2203 5.24206ZM19.0033 4.9175C19.0963 5.01037 19.17 5.12066 19.2203 5.24206L21.0679 4.47618C20.9169 4.11198 20.6956 3.78112 20.4167 3.5025L19.0033 4.9175ZM18.6779 4.69965C18.7993 4.74998 18.9096 4.82374 19.0025 4.91671L20.4175 3.50329C20.1389 3.22436 19.808 3.00308 19.4438 2.85211L18.6779 4.69965ZM18.295 4.62343C18.4264 4.62343 18.5565 4.64933 18.6779 4.69965L19.4438 2.85211C19.0796 2.70113 18.6892 2.62343 18.295 2.62343V4.62343ZM17.5842 4.98894C17.9987 4.68729 18.131 4.62343 18.295 4.62343V2.62343C17.3911 2.62343 16.7582 3.11649 16.4073 3.37186L17.5842 4.98894ZM16.139 5.69796C16.8016 5.57781 17.2969 5.19802 17.5842 4.98894L16.4073 3.37186C16.0617 3.62343 15.9239 3.70435 15.7822 3.73005L16.139 5.69796ZM13.4406 4.54661C14.0209 5.42297 15.1045 5.88554 16.139 5.69796L15.7822 3.73005C15.5347 3.77492 15.2471 3.65229 15.1081 3.44232L13.4406 4.54661ZM12.954 3.04423C13.0009 3.38834 13.0679 3.98391 13.4406 4.54661L15.1081 3.44232C15.0234 3.31444 14.9894 3.16893 14.9356 2.7742L12.954 3.04423ZM12.7071 2.29289C12.8486 2.43443 12.889 2.56777 12.954 3.04423L14.9356 2.7742C14.8753 2.33101 14.7908 1.54817 14.1213 0.87868L12.7071 2.29289ZM12 2C12.2652 2 12.5196 2.10536 12.7071 2.29289L14.1213 0.87868C13.5587 0.316071 12.7956 0 12 0V2ZM11.2929 2.29289C11.4804 2.10536 11.7348 2 12 2V0C11.2044 0 10.4413 0.316071 9.87868 0.87868L11.2929 2.29289ZM11.0471 3.06958C11.1061 2.57787 11.1458 2.43999 11.2929 2.29289L9.87868 0.878679C9.18977 1.56758 9.11611 2.37475 9.06134 2.83136L11.0471 3.06958ZM10.5594 4.62661C10.9453 4.04398 11.0044 3.42579 11.0471 3.06958L9.06134 2.83136C9.01221 3.24091 8.97917 3.39061 8.89195 3.52232L10.5594 4.62661ZM7.781 5.77796C8.30346 5.87269 8.84546 5.7942 9.31206 5.60893C9.77822 5.42384 10.245 5.10146 10.5594 4.62661L8.89195 3.52232C8.8484 3.58807 8.74497 3.68221 8.57398 3.75011C8.40343 3.81783 8.24129 3.82881 8.13782 3.81005L7.781 5.77796ZM6.41629 5.06548C6.66205 5.26603 7.1139 5.657 7.781 5.77796L8.13782 3.81005C8.04866 3.79388 7.97057 3.75242 7.68075 3.51592L6.41629 5.06548ZM6.00794 4.77965C6.10504 4.81991 6.19931 4.88842 6.41629 5.06548L7.68075 3.51592C7.49529 3.36459 7.18393 3.10211 6.77382 2.93211L6.00794 4.77965ZM5.625 4.70343C5.75642 4.70343 5.88654 4.72933 6.00794 4.77965L6.77382 2.93211C6.40963 2.78113 6.01925 2.70343 5.625 2.70343V4.70343ZM5.24206 4.77965C5.36346 4.72933 5.49358 4.70343 5.625 4.70343V2.70343C5.23075 2.70343 4.84037 2.78113 4.47618 2.93211L5.24206 4.77965ZM4.9175 4.99671C5.01037 4.90374 5.12066 4.82998 5.24206 4.77965L4.47618 2.93211C4.11198 3.08308 3.78112 3.30436 3.5025 3.58329L4.9175 4.99671ZM4.69965 5.32206C4.74998 5.20066 4.82374 5.09037 4.91671 4.9975L3.50329 3.5825C3.22436 3.86112 3.00308 4.19198 2.85211 4.55618L4.69965 5.32206ZM4.62343 5.705C4.62343 5.57358 4.64933 5.44346 4.69965 5.32206L2.85211 4.55618C2.70113 4.92037 2.62343 5.31075 2.62343 5.705H4.62343ZM4.69965 6.08794C4.64933 5.96654 4.62343 5.83642 4.62343 5.705H2.62343C2.62343 6.09925 2.70113 6.48963 2.85211 6.85382L4.69965 6.08794ZM4.98548 6.49629C4.80842 6.27931 4.73991 6.18504 4.69965 6.08794L2.85211 6.85382C3.02211 7.26393 3.28459 7.57529 3.43592 7.76075L4.98548 6.49629ZM5.69796 7.861C5.577 7.1939 5.18603 6.74205 4.98548 6.49629L3.43592 7.76075C3.67242 8.05057 3.71388 8.12866 3.73005 8.21782L5.69796 7.861ZM5.51486 9.40377C5.72865 8.91935 5.79243 8.382 5.69796 7.861L3.73005 8.21782C3.75322 8.34561 3.73758 8.47742 3.68514 8.59623L5.51486 9.40377ZM4.59305 10.5859C5.02555 10.2765 5.35499 9.84424 5.53854 9.34518L3.66146 8.65482C3.61644 8.77723 3.53564 8.88327 3.42955 8.95914L4.59305 10.5859ZM3.04405 11.1234C3.39869 11.071 4.02096 10.9951 4.59305 10.5859L3.42955 8.95914C3.30651 9.04714 3.16292 9.08418 2.75206 9.14481L3.04405 11.1234ZM2.29289 11.3729C2.42864 11.2371 2.56453 11.1941 3.04405 11.1234L2.75207 9.14481C2.3156 9.20922 1.53604 9.30132 0.87868 9.95868L2.29289 11.3729ZM2 12.08C2 11.8148 2.10536 11.5604 2.29289 11.3729L0.87868 9.95868C0.316071 10.5213 0 11.2844 0 12.08H2ZM2.29289 12.7871C2.10536 12.5996 2 12.3452 2 12.08H0C0 12.8756 0.316071 13.6387 0.87868 14.2013L2.29289 12.7871ZM3.06958 13.0329C2.57787 12.9739 2.43999 12.9342 2.29289 12.7871L0.878679 14.2013C1.56758 14.8902 2.37475 14.9639 2.83136 15.0187L3.06958 13.0329ZM4.62661 13.5206C4.04398 13.1347 3.42579 13.0756 3.06958 13.0329L2.83136 15.0187C3.24091 15.0678 3.39061 15.1008 3.52232 15.1881L4.62661 13.5206ZM5.59914 14.6861C5.39555 14.211 5.05751 13.8059 4.62661 13.5206L3.52232 15.1881C3.62801 15.258 3.71092 15.3574 3.76086 15.4739L5.59914 14.6861ZM5.77796 16.219C5.87243 15.698 5.80865 15.1606 5.59486 14.6762L3.76514 15.4838C3.81758 15.6026 3.83322 15.7344 3.81005 15.8622L5.77796 16.219ZM5.06549 17.5837C5.26603 17.3379 5.657 16.8861 5.77796 16.219L3.81005 15.8622C3.79388 15.9513 3.75242 16.0294 3.51592 16.3193L5.06549 17.5837ZM4.77965 17.9921C4.81991 17.895 4.88842 17.8007 5.06548 17.5837L3.51592 16.3193C3.36459 16.5047 3.10212 16.8161 2.93211 17.2262L4.77965 17.9921ZM4.70343 18.375C4.70343 18.2436 4.72933 18.1135 4.77965 17.9921L2.93211 17.2262C2.78113 17.5904 2.70343 17.9808 2.70343 18.375H4.70343ZM4.77965 18.7579C4.72933 18.6365 4.70343 18.5064 4.70343 18.375H2.70343C2.70343 18.7692 2.78113 19.1596 2.93211 19.5238L4.77965 18.7579ZM4.99671 19.0825C4.90374 18.9896 4.82998 18.8793 4.77965 18.7579L2.93211 19.5238C3.08308 19.888 3.30436 20.2189 3.58329 20.4975L4.99671 19.0825ZM5.32206 19.3003C5.20066 19.25 5.09037 19.1763 4.9975 19.0833L3.5825 20.4967C3.86112 20.7756 4.19199 20.9969 4.55618 21.1479L5.32206 19.3003ZM5.705 19.3766C5.57359 19.3766 5.44346 19.3507 5.32206 19.3003L4.55618 21.1479C4.92037 21.2989 5.31075 21.3766 5.705 21.3766V19.3766ZM6.08794 19.3003C5.96654 19.3507 5.83641 19.3766 5.705 19.3766V21.3766C6.09925 21.3766 6.48963 21.2989 6.85382 21.1479L6.08794 19.3003ZM6.49629 19.0145C6.2793 19.1916 6.18505 19.2601 6.08794 19.3003L6.85382 21.1479C7.26393 20.9779 7.5753 20.7154 7.76075 20.5641L6.49629 19.0145ZM7.861 18.302C7.1939 18.423 6.74205 18.814 6.49629 19.0145L7.76075 20.5641C8.05057 20.3276 8.12866 20.2861 8.21782 20.27L7.861 18.302ZM9.40377 18.4851C8.91935 18.2713 8.382 18.2076 7.861 18.302L8.21782 20.27C8.34562 20.2468 8.47742 20.2624 8.59623 20.3149L9.40377 18.4851ZM10.5859 19.407C10.2765 18.9744 9.84424 18.645 9.34518 18.4615L8.65482 20.3385C8.77723 20.3836 8.88327 20.4644 8.95914 20.5704L10.5859 19.407ZM11.1234 20.9559C11.071 20.6013 10.9951 19.979 10.5859 19.407L8.95914 20.5704C9.04714 20.6935 9.08418 20.8371 9.14481 21.2479L11.1234 20.9559ZM11.3729 21.7071C11.2371 21.5714 11.1941 21.4355 11.1234 20.9559L9.14481 21.2479C9.20922 21.6844 9.30132 22.464 9.95868 23.1213L11.3729 21.7071ZM12.08 22C11.8148 22 11.5604 21.8946 11.3729 21.7071L9.95868 23.1213C10.5213 23.6839 11.2844 24 12.08 24V22ZM12.7871 21.7071C12.5996 21.8946 12.3452 22 12.08 22V24C12.8756 24 13.6387 23.6839 14.2013 23.1213L12.7871 21.7071ZM13.0329 20.9304C12.9739 21.4221 12.9342 21.56 12.7871 21.7071L14.2013 23.1213C14.8902 22.4324 14.9639 21.6253 15.0187 21.1686L13.0329 20.9304ZM13.5206 19.3734C13.1347 19.956 13.0756 20.5742 13.0329 20.9304L15.0187 21.1686C15.0678 20.7591 15.1008 20.6094 15.1881 20.4777L13.5206 19.3734ZM14.6861 18.4009C14.211 18.6044 13.8059 18.9425 13.5206 19.3734L15.1881 20.4777C15.258 20.372 15.3574 20.2891 15.4739 20.2391L14.6861 18.4009ZM16.219 18.222C15.698 18.1276 15.1606 18.1913 14.6762 18.4051L15.4838 20.2349C15.6026 20.1824 15.7344 20.1668 15.8622 20.19L16.219 18.222ZM17.5993 18.9351C17.2207 18.5649 16.74 18.3165 16.219 18.222L15.8622 20.19C15.99 20.2131 16.1079 20.274 16.2007 20.3649L17.5993 18.9351ZM17.9921 19.2203C17.8747 19.1717 17.752 19.0878 17.6071 18.9429L16.1929 20.3571C16.4625 20.6267 16.7978 20.8903 17.2262 21.0679L17.9921 19.2203ZM18.375 19.2966C18.2436 19.2966 18.1135 19.2707 17.9921 19.2203L17.2262 21.0679C17.5904 21.2189 17.9808 21.2966 18.375 21.2966V19.2966ZM18.7579 19.2203C18.6365 19.2707 18.5064 19.2966 18.375 19.2966V21.2966C18.7692 21.2966 19.1596 21.2189 19.5238 21.0679L18.7579 19.2203ZM19.3003 18.6779C19.2005 18.9187 18.9987 19.1205 18.7579 19.2203L19.5238 21.0679C20.2542 20.7651 20.8451 20.1742 21.1479 19.4438L19.3003 18.6779ZM19.3766 18.295C19.3766 18.4264 19.3507 18.5565 19.3003 18.6779L21.1479 19.4438C21.2989 19.0796 21.3766 18.6892 21.3766 18.295H19.3766ZM19.3003 17.9121C19.3507 18.0335 19.3766 18.1636 19.3766 18.295H21.3766C21.3766 17.9008 21.2989 17.5104 21.1479 17.1462L19.3003 17.9121ZM19.0145 17.5037C19.1916 17.7207 19.2601 17.815 19.3003 17.9121L21.1479 17.1462C20.9779 16.7361 20.7154 16.4247 20.5641 16.2393L19.0145 17.5037ZM12 16C14.2091 16 16 14.2091 16 12H14C14 13.1046 13.1046 14 12 14V16ZM8 12C8 14.2091 9.79086 16 12 16V14C10.8954 14 10 13.1046 10 12H8ZM12 8C9.79086 8 8 9.79086 8 12H10C10 10.8954 10.8954 10 12 10V8ZM16 12C16 9.79086 14.2091 8 12 8V10C13.1046 10 14 10.8954 14 12H16Z" fill="currentColor"/>
</svg>
