<svg width="78" height="78" viewBox="0 0 78 78" fill="none" xmlns="http://www.w3.org/2000/svg">
<path fill-rule="evenodd" clip-rule="evenodd" d="M38.9989 2.41699C18.795 2.41699 2.4165 18.7955 2.4165 38.9995C2.4165 50.2333 7.48014 60.2845 15.4495 66.9952V65.3058C15.4495 62.8867 16.8907 60.6974 19.1972 59.1601C21.5032 57.6231 24.5722 56.7912 27.7242 56.7912H50.2737C53.4257 56.7912 56.4947 57.6231 58.8007 59.1601C61.1073 60.6974 62.5484 62.8867 62.5484 65.3058V66.9951C70.5178 60.2845 75.5814 50.2333 75.5814 38.9995C75.5814 18.7955 59.2029 2.41699 38.9989 2.41699ZM38.9989 75.5819C30.9421 75.5819 23.4936 72.9774 17.4495 68.5644V65.3058C17.4495 63.7389 18.3841 62.1055 20.3064 60.8243C22.2292 59.5427 24.8957 58.7912 27.7242 58.7912H50.2737C53.1022 58.7912 55.7687 59.5427 57.6915 60.8243C59.6139 62.1055 60.5484 63.7389 60.5484 65.3058V68.5643C54.5043 72.9774 47.0558 75.5819 38.9989 75.5819ZM0.416504 38.9995C0.416504 17.6909 17.6904 0.416992 38.9989 0.416992C60.3074 0.416992 77.5814 17.6909 77.5814 38.9995C77.5814 60.308 60.3074 77.5819 38.9989 77.5819C17.6904 77.5819 0.416504 60.308 0.416504 38.9995ZM24.9668 27.7253C24.9668 19.9751 31.2496 13.6923 38.9998 13.6923C46.75 13.6923 53.0328 19.9751 53.0328 27.7253C53.0328 35.4755 46.75 41.7582 38.9998 41.7582C31.2496 41.7582 24.9668 35.4755 24.9668 27.7253ZM38.9998 11.6923C30.145 11.6923 22.9668 18.8705 22.9668 27.7253C22.9668 36.58 30.145 43.7582 38.9998 43.7582C47.8546 43.7582 55.0328 36.58 55.0328 27.7253C55.0328 18.8705 47.8546 11.6923 38.9998 11.6923Z" fill="currentColor"/>
</svg>
