<svg width="32" height="32" viewBox="0 0 32 32" fill="none" xmlns="http://www.w3.org/2000/svg">
<g clip-path="url(#clip0_6365:30227)">
<path fill-rule="evenodd" clip-rule="evenodd" d="M16 1.97559C8.27199 1.97559 2.00391 8.2529 2.00391 16.0004C2.00391 19.8564 3.55659 23.3482 6.06918 25.8831C6.27091 24.9357 6.91313 24.1303 7.76469 23.5615C8.80007 22.87 10.1459 22.513 11.5013 22.513H20.499C21.8543 22.513 23.2002 22.87 24.2356 23.5615C25.0871 24.1303 25.7293 24.9357 25.931 25.883C28.4436 23.348 29.9962 19.8563 29.9962 16.0004C29.9962 8.2529 23.7281 1.97559 16 1.97559ZM16 30.0252C13.0268 30.0252 10.2697 29.096 8.00244 27.5114V26.5179C8.00244 26.1461 8.22422 25.6597 8.87556 25.2247C9.52757 24.7892 10.4703 24.513 11.5013 24.513H20.499C21.53 24.513 22.4727 24.7892 23.1247 25.2247C23.776 25.6597 23.9978 26.1461 23.9978 26.5179V27.5113C21.7306 29.096 18.9734 30.0252 16 30.0252ZM0.00390625 16.0004C0.00390625 7.15193 7.16382 -0.0244141 16 -0.0244141C24.8363 -0.0244141 31.9962 7.15193 31.9962 16.0004C31.9962 24.8488 24.8363 32.0252 16 32.0252C7.16382 32.0252 0.00390625 24.8488 0.00390625 16.0004ZM11.0015 11.493C11.0015 8.72428 13.2411 6.48306 15.9999 6.48306C18.7587 6.48306 20.9984 8.72428 20.9984 11.493C20.9984 14.2617 18.7587 16.5029 15.9999 16.5029C13.2411 16.5029 11.0015 14.2617 11.0015 11.493ZM15.9999 4.48306C12.133 4.48306 9.00146 7.62331 9.00146 11.493C9.00146 15.3627 12.133 18.5029 15.9999 18.5029C19.8669 18.5029 22.9984 15.3627 22.9984 11.493C22.9984 7.62331 19.8669 4.48306 15.9999 4.48306Z" fill="currentColor"/>
</g>
<defs>
<clipPath id="clip0_6365:30227">
<rect width="32" height="32" fill="white"/>
</clipPath>
</defs>
</svg>
