<svg width="234" height="76" viewBox="0 0 234 76" fill="none" xmlns="http://www.w3.org/2000/svg">
<path fill-rule="evenodd" clip-rule="evenodd" d="M117 76C137.987 76 155 58.9868 155 38C155 17.0132 137.987 0 117 0C96.0132 0 79 17.0132 79 38C79 58.9868 96.0132 76 117 76ZM117 20C120.866 20 124 16.866 124 13C124 9.134 120.866 6 117 6C113.134 6 110 9.134 110 13C110 16.866 113.134 20 117 20ZM92 45C95.866 45 99 41.866 99 38C99 34.134 95.866 31 92 31C88.134 31 85 34.134 85 38C85 41.866 88.134 45 92 45ZM117 45C120.866 45 124 41.866 124 38C124 34.134 120.866 31 117 31C113.134 31 110 34.134 110 38C110 41.866 113.134 45 117 45ZM124 63C124 66.866 120.866 70 117 70C113.134 70 110 66.866 110 63C110 59.134 113.134 56 117 56C120.866 56 124 59.134 124 63ZM142 45C145.866 45 149 41.866 149 38C149 34.134 145.866 31 142 31C138.134 31 135 34.134 135 38C135 41.866 138.134 45 142 45Z" fill="#00CAD7"/>
<path d="M73 61.4514H61.6177V76H40.4948V61.4514H0V47.4457L34.3658 0H56.8021L25.6102 44.4057H41.1514V31.4857H61.6177V44.4057H73V61.4514Z" fill="#00CAD7"/>
<path d="M234 61.4514H222.618V76H201.495V61.4514H161V47.4457L195.366 0H217.802L186.61 44.4057H202.151V31.4857H222.618V44.4057H234V61.4514Z" fill="#00CAD7"/>
</svg>
