<svg width="48" height="48" viewBox="0 0 48 48" fill="none" xmlns="http://www.w3.org/2000/svg">
<rect x="0.5" y="0.5" width="47" height="47" rx="23.5" fill="white" stroke="#C6C6C6"/>
<path fill-rule="evenodd" clip-rule="evenodd" d="M27.5816 13.1813C28.4216 12.097 29.0584 10.5644 28.8281 9C27.4552 9.09541 25.8504 9.97378 24.9141 11.1187C24.0606 12.1561 23.3591 13.6993 23.633 15.197C25.1339 15.244 26.6829 14.3444 27.5816 13.1813ZM35 27.8971C34.3994 29.2358 34.1103 29.834 33.3366 31.0198C32.2572 32.6751 30.7353 34.7362 28.8476 34.7514C27.1721 34.7696 26.7401 33.6534 24.4655 33.6671C22.1909 33.6792 21.7167 34.7726 20.0382 34.7559C18.152 34.7393 16.7098 32.8795 15.6305 31.2243C12.6107 26.5992 12.2931 21.17 14.1552 18.282C15.4799 16.2314 17.5694 15.032 19.5324 15.032C21.53 15.032 22.787 16.1345 24.4414 16.1345C26.0461 16.1345 27.0231 15.029 29.3338 15.029C31.083 15.029 32.9361 15.9876 34.2548 17.6414C29.9314 20.0251 30.6314 26.2357 35 27.8971Z" fill="#0B0B0A"/>
</svg>
