<svg width="162" height="48" viewBox="0 0 162 48" fill="none" xmlns="http://www.w3.org/2000/svg">
<g clip-path="url(#clip0_5925_35102)">
<path d="M156 8.09618e-07L6 3.11392e-08C2.68629 1.39415e-08 -1.39415e-08 2.68629 -3.11392e-08 6L-2.17974e-07 42C-2.35172e-07 45.3137 2.68629 48 6 48L156 48C159.314 48 162 45.3137 162 42L162 6C162 2.68629 159.314 8.26816e-07 156 8.09618e-07Z" fill="black"/>
<path d="M156 0.960001C157.337 0.960001 158.619 1.491 159.564 2.43618C160.509 3.38137 161.04 4.66331 161.04 6L161.04 42C161.04 43.3367 160.509 44.6186 159.564 45.5638C158.619 46.509 157.337 47.04 156 47.04L6 47.04C4.66331 47.04 3.38136 46.509 2.43618 45.5638C1.491 44.6186 0.96 43.3367 0.96 42L0.96 6C0.96 4.66331 1.491 3.38137 2.43618 2.43618C3.38137 1.491 4.66331 0.96 6 0.96L156 0.960001ZM156 8.09618e-07L6 3.11392e-08C4.4087 2.28806e-08 2.88258 0.632141 1.75736 1.75736C0.632141 2.88258 -2.28805e-08 4.4087 -3.11392e-08 6L-2.17974e-07 42C-2.26233e-07 43.5913 0.632141 45.1174 1.75736 46.2426C2.88258 47.3679 4.4087 48 6 48L156 48C157.591 48 159.117 47.3679 160.243 46.2426C161.368 45.1174 162 43.5913 162 42L162 6C162 4.4087 161.368 2.88258 160.243 1.75736C159.117 0.632142 157.591 8.17877e-07 156 8.09618e-07Z" fill="#A6A6A6"/>
<path d="M38.5354 23.1751C38.5022 19.49 41.5527 17.6972 41.6922 17.6138C39.9646 15.0949 37.2868 14.7508 36.3458 14.7233C34.0968 14.4867 31.9153 16.0691 30.7696 16.0691C29.6011 16.0691 27.8369 14.7462 25.9355 14.7851C23.4887 14.8228 21.1997 16.2395 19.9442 18.4393C17.3534 22.9247 19.2857 29.5162 21.7679 33.1419C23.0096 34.9175 24.4605 36.9001 26.3597 36.8304C28.2176 36.7538 28.9117 35.6458 31.1538 35.6458C33.3754 35.6458 34.0271 36.8304 35.964 36.7858C37.958 36.7538 39.2134 35.0021 40.4117 33.2105C41.8466 31.1753 42.4228 29.1709 42.4457 29.068C42.3988 29.052 38.5731 27.592 38.5354 23.1751Z" fill="white"/>
<path d="M34.8763 12.3393C35.8756 11.0896 36.5594 9.3894 36.3696 7.66406C34.9232 7.72809 33.1144 8.66451 32.0728 9.88677C31.1512 10.9638 30.328 12.7292 30.5407 14.3893C32.1654 14.5105 33.8336 13.5696 34.8763 12.3393Z" fill="white"/>
<path d="M65.4239 36.5753L62.8273 36.5753L61.4049 32.1059L56.461 32.1059L55.1061 36.5753L52.5781 36.5753L57.4763 21.3594L60.5017 21.3594L65.4239 36.5753ZM60.9762 30.2308L59.6899 26.2576C59.5538 25.8517 59.2988 24.8958 58.9227 23.3911L58.8769 23.3911C58.7272 24.0383 58.4859 24.9941 58.1543 26.2576L56.8909 30.2308L60.9762 30.2308Z" fill="white"/>
<path d="M78.02 30.9551C78.02 32.8211 77.5157 34.296 76.5073 35.3788C75.604 36.3427 74.4824 36.824 73.1435 36.824C71.6983 36.824 70.6601 36.3049 70.0278 35.2667L69.9821 35.2667L69.9821 41.0465L67.5444 41.0465L67.5444 29.216C67.5444 28.043 67.5136 26.839 67.4541 25.6042L69.5979 25.6042L69.734 27.3432L69.7797 27.3432C70.5926 26.0329 71.8263 25.3789 73.4819 25.3789C74.7762 25.3789 75.8567 25.89 76.7211 26.9133C77.5878 27.9378 78.02 29.2846 78.02 30.9551ZM75.5366 31.0443C75.5366 29.9764 75.2965 29.096 74.814 28.4031C74.2869 27.6805 73.5791 27.3192 72.6919 27.3192C72.0905 27.3192 71.5439 27.5204 71.0557 27.9172C70.5663 28.3174 70.2462 28.8399 70.0964 29.487C70.021 29.7889 69.9832 30.0358 69.9832 30.2302L69.9832 32.0596C69.9832 32.8577 70.2279 33.5311 70.7173 34.0811C71.2066 34.631 71.8423 34.9054 72.6244 34.9054C73.5425 34.9054 74.2571 34.551 74.7682 33.8444C75.2804 33.1367 75.5366 32.2037 75.5366 31.0443Z" fill="white"/>
<path d="M90.6399 30.9551C90.6399 32.8211 90.1357 34.296 89.1261 35.3788C88.224 36.3427 87.1023 36.824 85.7634 36.824C84.3182 36.824 83.2801 36.3049 82.6489 35.2667L82.6032 35.2667L82.6032 41.0465L80.1655 41.0465L80.1655 29.216C80.1655 28.043 80.1347 26.839 80.0752 25.6042L82.219 25.6042L82.3551 27.3432L82.4008 27.3432C83.2126 26.0329 84.4463 25.3789 86.103 25.3789C87.3962 25.3789 88.4767 25.89 89.3433 26.9133C90.2066 27.9378 90.6399 29.2846 90.6399 30.9551ZM88.1565 31.0443C88.1565 29.9764 87.9153 29.096 87.4328 28.4031C86.9057 27.6805 86.2002 27.3192 85.3118 27.3192C84.7093 27.3192 84.1639 27.5204 83.6745 27.9172C83.1852 28.3174 82.8662 28.8399 82.7164 29.487C82.6421 29.7889 82.6032 30.0358 82.6032 30.2302L82.6032 32.0596C82.6032 32.8577 82.8479 33.5311 83.3349 34.0811C83.8243 34.6299 84.46 34.9054 85.2444 34.9054C86.1625 34.9054 86.8771 34.551 87.3882 33.8444C87.9004 33.1367 88.1565 32.2037 88.1565 31.0443Z" fill="white"/>
<path d="M104.749 32.3086C104.749 33.6029 104.3 34.6559 103.398 35.4688C102.406 36.3572 101.026 36.8009 99.2531 36.8009C97.6158 36.8009 96.3032 36.4853 95.3096 35.853L95.8744 33.8212C96.9446 34.4684 98.1188 34.7931 99.3983 34.7931C100.316 34.7931 101.031 34.585 101.544 34.1711C102.055 33.7572 102.31 33.2015 102.31 32.5087C102.31 31.8912 102.1 31.371 101.678 30.9491C101.259 30.5272 100.558 30.135 99.5789 29.7726C96.9149 28.779 95.584 27.3235 95.584 25.4095C95.584 24.1586 96.0505 23.133 96.9846 22.335C97.9153 21.5358 99.157 21.1367 100.71 21.1367C102.094 21.1367 103.245 21.378 104.163 21.8593L103.553 23.8465C102.696 23.38 101.726 23.1468 100.641 23.1468C99.7836 23.1468 99.1136 23.3583 98.6334 23.779C98.2275 24.1552 98.0239 24.6137 98.0239 25.1568C98.0239 25.7582 98.256 26.2556 98.7225 26.6466C99.1284 27.0079 99.8659 27.3989 100.936 27.8208C102.245 28.3479 103.207 28.9642 103.825 29.6708C104.442 30.3751 104.749 31.2567 104.749 32.3086Z" fill="white"/>
<path d="M112.809 27.4343L110.122 27.4343L110.122 32.7612C110.122 34.1161 110.595 34.793 111.544 34.793C111.98 34.793 112.341 34.7553 112.627 34.6798L112.694 36.5309C112.214 36.7104 111.582 36.8007 110.799 36.8007C109.836 36.8007 109.084 36.5069 108.541 35.9203C108 35.3327 107.728 34.3471 107.728 32.9625L107.728 27.432L106.127 27.432L106.127 25.6026L107.728 25.6026L107.728 23.5937L110.122 22.8711L110.122 25.6026L112.809 25.6026L112.809 27.4343Z" fill="white"/>
<path d="M124.931 30.9986C124.931 32.685 124.449 34.0696 123.486 35.1524C122.476 36.2672 121.136 36.8229 119.466 36.8229C117.856 36.8229 116.574 36.2889 115.618 35.221C114.662 34.1531 114.185 32.8051 114.185 31.1804C114.185 29.4802 114.676 28.0875 115.663 27.0048C116.647 25.9209 117.976 25.3789 119.646 25.3789C121.256 25.3789 122.552 25.9129 123.529 26.9819C124.465 28.0189 124.931 29.3578 124.931 30.9986ZM122.402 31.0774C122.402 30.0656 122.186 29.1978 121.748 28.474C121.237 27.5982 120.506 27.1614 119.56 27.1614C118.58 27.1614 117.835 27.5993 117.324 28.474C116.886 29.1989 116.67 30.0804 116.67 31.1232C116.67 32.1351 116.886 33.0029 117.324 33.7255C117.851 34.6013 118.588 35.0381 119.538 35.0381C120.469 35.0381 121.199 34.5922 121.726 33.7026C122.176 32.9652 122.402 32.0882 122.402 31.0774Z" fill="white"/>
<path d="M132.854 27.748C132.613 27.7034 132.356 27.6805 132.086 27.6805C131.229 27.6805 130.565 28.0041 130.099 28.6524C129.693 29.224 129.489 29.9467 129.489 30.819L129.489 36.5759L127.053 36.5759L127.076 29.0594C127.076 27.7948 127.045 26.6435 126.984 25.6053L129.108 25.6053L129.197 27.7045L129.264 27.7045C129.522 26.9831 129.927 26.4022 130.483 25.9666C131.026 25.5744 131.613 25.3789 132.245 25.3789C132.47 25.3789 132.674 25.3949 132.854 25.4235L132.854 27.748Z" fill="white"/>
<path d="M143.756 30.572C143.756 31.0088 143.728 31.3769 143.667 31.6776L136.354 31.6776C136.383 32.7615 136.736 33.5905 137.415 34.1622C138.032 34.6733 138.829 34.9294 139.807 34.9294C140.89 34.9294 141.878 34.7567 142.766 34.4103L143.148 36.1025C142.11 36.5552 140.884 36.7805 139.47 36.7805C137.769 36.7805 136.433 36.2797 135.461 35.2792C134.492 34.2788 134.006 32.9353 134.006 31.25C134.006 29.5956 134.457 28.2178 135.362 27.119C136.309 25.9459 137.588 25.3594 139.198 25.3594C140.779 25.3594 141.976 25.9459 142.789 27.119C143.433 28.0509 143.756 29.2034 143.756 30.572ZM141.432 29.9397C141.448 29.2171 141.289 28.5928 140.959 28.0657C140.537 27.3877 139.888 27.0493 139.016 27.0493C138.219 27.0493 137.571 27.3797 137.076 28.0429C136.67 28.57 136.429 29.2022 136.354 29.9386L141.432 29.9386L141.432 29.9397Z" fill="white"/>
<path d="M60.1698 11.9993C60.1698 13.345 59.7662 14.3581 58.9602 15.0384C58.2135 15.6661 57.1525 15.9805 55.7782 15.9805C55.0967 15.9805 54.5136 15.9508 54.0254 15.8913L54.0254 8.53831C54.6622 8.43541 55.3483 8.38281 56.0892 8.38281C57.3983 8.38281 58.3851 8.66751 59.0505 9.23691C59.796 9.88062 60.1698 10.801 60.1698 11.9993ZM58.9064 12.0324C58.9064 11.1601 58.6755 10.4912 58.2135 10.0247C57.7516 9.55934 57.077 9.32609 56.1886 9.32609C55.8113 9.32609 55.49 9.35124 55.2236 9.40384L55.2236 14.9938C55.3711 15.0166 55.641 15.0269 56.0331 15.0269C56.9501 15.0269 57.6579 14.7719 58.1564 14.262C58.6549 13.7521 58.9064 13.0089 58.9064 12.0324Z" fill="white"/>
<path d="M66.8688 13.1742C66.8688 14.0031 66.6321 14.6823 66.1587 15.2151C65.6625 15.7627 65.0051 16.036 64.1841 16.036C63.3929 16.036 62.7629 15.7742 62.293 15.2482C61.8242 14.7234 61.5898 14.0614 61.5898 13.2633C61.5898 12.4287 61.8311 11.7438 62.3159 11.2121C62.8007 10.6805 63.4524 10.4141 64.2733 10.4141C65.0645 10.4141 65.7002 10.6759 66.1816 11.2007C66.6389 11.7106 66.8688 12.3692 66.8688 13.1742ZM65.6259 13.213C65.6259 12.7157 65.5185 12.2892 65.3046 11.9336C65.0531 11.5037 64.6952 11.2887 64.2299 11.2887C63.7485 11.2887 63.3826 11.5037 63.1311 11.9336C62.9161 12.2892 62.8098 12.7225 62.8098 13.2348C62.8098 13.7321 62.9173 14.1586 63.1311 14.5142C63.3906 14.9441 63.7519 15.159 64.2184 15.159C64.6758 15.159 65.0348 14.9407 65.2932 14.5027C65.515 14.1403 65.6259 13.7104 65.6259 13.213Z" fill="white"/>
<path d="M75.8512 10.5234L74.1647 15.9133L73.0671 15.9133L72.3685 13.5728C72.1913 12.9885 72.0472 12.4077 71.9352 11.8314L71.9134 11.8314C71.8094 12.4237 71.6653 13.0034 71.4801 13.5728L70.7381 15.9133L69.6278 15.9133L68.042 10.5234L69.2734 10.5234L69.8828 13.0857C70.0303 13.6917 70.1515 14.2691 70.2487 14.8156L70.2704 14.8156C70.3596 14.3652 70.5071 13.7912 70.7152 13.0972L71.4801 10.5246L72.4565 10.5246L73.1894 13.0423C73.3667 13.6563 73.5107 14.2474 73.6216 14.8168L73.6548 14.8168C73.736 14.2622 73.8583 13.6711 74.0207 13.0423L74.6747 10.5246L75.8512 10.5246L75.8512 10.5234Z" fill="white"/>
<path d="M82.0633 15.9132L80.865 15.9132L80.865 12.8261C80.865 11.8748 80.5037 11.3992 79.7788 11.3992C79.4232 11.3992 79.1362 11.5295 78.9133 11.7913C78.6926 12.0532 78.5806 12.3619 78.5806 12.7152L78.5806 15.912L77.3823 15.912L77.3823 12.0635C77.3823 11.5901 77.3675 11.0767 77.3389 10.5211L78.3919 10.5211L78.4479 11.3637L78.4811 11.3637C78.6206 11.1019 78.8287 10.8858 79.1019 10.7131C79.4267 10.5119 79.7902 10.4102 80.1881 10.4102C80.6912 10.4102 81.1097 10.5725 81.4424 10.8984C81.8563 11.2974 82.0633 11.8931 82.0633 12.6843L82.0633 15.9132Z" fill="white"/>
<path d="M85.367 15.9137L84.1699 15.9137L84.1699 8.05078L85.367 8.05078L85.367 15.9137Z" fill="white"/>
<path d="M92.4225 13.1742C92.4225 14.0031 92.1858 14.6823 91.7125 15.2151C91.2162 15.7627 90.5577 16.036 89.7379 16.036C88.9455 16.036 88.3155 15.7742 87.8467 15.2482C87.3779 14.7234 87.1436 14.0614 87.1436 13.2633C87.1436 12.4287 87.3848 11.7438 87.8696 11.2121C88.3544 10.6805 89.0061 10.4141 89.8259 10.4141C90.6183 10.4141 91.2528 10.6759 91.7353 11.2007C92.1927 11.7106 92.4225 12.3692 92.4225 13.1742ZM91.1785 13.213C91.1785 12.7157 91.071 12.2892 90.8572 11.9336C90.6068 11.5037 90.2478 11.2887 89.7836 11.2887C89.3011 11.2887 88.9352 11.5037 88.6848 11.9336C88.4699 12.2892 88.3635 12.7225 88.3635 13.2348C88.3635 13.7321 88.471 14.1586 88.6848 14.5142C88.9444 14.9441 89.3057 15.159 89.7722 15.159C90.2295 15.159 90.5874 14.9407 90.8458 14.5027C91.0687 14.1403 91.1785 13.7104 91.1785 13.213Z" fill="white"/>
<path d="M98.2207 15.9137L97.1448 15.9137L97.0556 15.2928L97.0225 15.2928C96.6543 15.7879 96.1295 16.036 95.4481 16.036C94.9393 16.036 94.5277 15.8725 94.2178 15.5478C93.9365 15.2528 93.7959 14.8858 93.7959 14.4501C93.7959 13.7916 94.0703 13.2896 94.6226 12.942C95.1737 12.5945 95.9489 12.4241 96.947 12.4321L96.947 12.3315C96.947 11.6215 96.5743 11.267 95.8277 11.267C95.296 11.267 94.8272 11.4008 94.4225 11.6661L94.1789 10.8794C94.6797 10.5696 95.2983 10.4141 96.0278 10.4141C97.4364 10.4141 98.143 11.1573 98.143 12.6436L98.143 14.6285C98.143 15.167 98.1693 15.5958 98.2207 15.9137ZM96.9768 14.0614L96.9768 13.2302C95.655 13.2073 94.9942 13.5698 94.9942 14.3164C94.9942 14.5976 95.0696 14.808 95.224 14.9487C95.3783 15.0893 95.575 15.159 95.8094 15.159C96.0724 15.159 96.3182 15.0756 96.5423 14.9098C96.7675 14.7429 96.9059 14.5313 96.9573 14.2718C96.9699 14.2135 96.9768 14.1426 96.9768 14.0614Z" fill="white"/>
<path d="M105.03 15.9137L103.967 15.9137L103.911 15.0482L103.877 15.0482C103.538 15.7068 102.959 16.0361 102.146 16.0361C101.497 16.0361 100.956 15.7811 100.527 15.2711C100.099 14.7612 99.8848 14.0992 99.8848 13.2863C99.8848 12.4139 100.117 11.7073 100.583 11.1676C101.035 10.6645 101.588 10.413 102.247 10.413C102.971 10.413 103.477 10.6565 103.765 11.1447L103.788 11.1447L103.788 8.05078L104.988 8.05078L104.988 14.4616C104.988 14.9864 105.001 15.4701 105.03 15.9137ZM103.788 13.6407L103.788 12.742C103.788 12.5865 103.777 12.4608 103.755 12.3647C103.688 12.0766 103.542 11.8342 103.322 11.6387C103.099 11.4432 102.83 11.3448 102.52 11.3448C102.073 11.3448 101.723 11.522 101.466 11.8776C101.211 12.2332 101.082 12.6871 101.082 13.2417C101.082 13.7745 101.204 14.2067 101.45 14.5394C101.71 14.8938 102.059 15.0711 102.497 15.0711C102.891 15.0711 103.205 14.9236 103.444 14.6274C103.675 14.3542 103.788 14.0249 103.788 13.6407Z" fill="white"/>
<path d="M115.278 13.1742C115.278 14.0031 115.041 14.6823 114.568 15.2151C114.072 15.7627 113.415 16.036 112.593 16.036C111.803 16.036 111.173 15.7742 110.702 15.2482C110.233 14.7234 109.999 14.0614 109.999 13.2633C109.999 12.4287 110.24 11.7438 110.725 11.2121C111.21 10.6805 111.862 10.4141 112.684 10.4141C113.474 10.4141 114.111 10.6759 114.591 11.2007C115.048 11.7106 115.278 12.3692 115.278 13.1742ZM114.036 13.213C114.036 12.7157 113.929 12.2892 113.715 11.9336C113.462 11.5037 113.106 11.2887 112.639 11.2887C112.159 11.2887 111.793 11.5037 111.54 11.9336C111.325 12.2892 111.219 12.7225 111.219 13.2348C111.219 13.7321 111.326 14.1586 111.54 14.5142C111.8 14.9441 112.161 15.159 112.628 15.159C113.085 15.159 113.445 14.9407 113.704 14.5027C113.924 14.1403 114.036 13.7104 114.036 13.213Z" fill="white"/>
<path d="M121.72 15.9132L120.523 15.9132L120.523 12.8261C120.523 11.8748 120.162 11.3992 119.436 11.3992C119.08 11.3992 118.793 11.5295 118.571 11.7913C118.35 12.0532 118.239 12.3619 118.239 12.7152L118.239 15.912L117.039 15.912L117.039 12.0635C117.039 11.5901 117.026 11.0767 116.997 10.5211L118.049 10.5211L118.105 11.3637L118.138 11.3637C118.279 11.1019 118.487 10.8858 118.759 10.7131C119.085 10.5119 119.447 10.4102 119.846 10.4102C120.348 10.4102 120.767 10.5725 121.099 10.8984C121.515 11.2974 121.72 11.8931 121.72 12.6843L121.72 15.9132Z" fill="white"/>
<path d="M129.785 11.4195L128.465 11.4195L128.465 14.0379C128.465 14.7033 128.7 15.036 129.164 15.036C129.379 15.036 129.557 15.0177 129.698 14.98L129.729 15.889C129.492 15.9782 129.181 16.0227 128.798 16.0227C128.324 16.0227 127.956 15.8787 127.69 15.5906C127.422 15.3024 127.29 14.8176 127.29 14.1373L127.29 11.4195L126.502 11.4195L126.502 10.522L127.29 10.522L127.29 9.53413L128.464 9.17969L128.464 10.5209L129.783 10.5209L129.783 11.4195L129.785 11.4195Z" fill="white"/>
<path d="M136.128 15.9137L134.929 15.9137L134.929 12.8495C134.929 11.8833 134.568 11.3997 133.844 11.3997C133.288 11.3997 132.908 11.6798 132.7 12.2401C132.665 12.3578 132.644 12.5019 132.644 12.6711L132.644 15.9126L131.447 15.9126L131.447 8.05078L132.644 8.05078L132.644 11.2991L132.667 11.2991C133.045 10.708 133.585 10.413 134.286 10.413C134.782 10.413 135.193 10.5753 135.519 10.9012C135.925 11.3071 136.128 11.9108 136.128 12.7089L136.128 15.9137Z" fill="white"/>
<path d="M142.672 12.9623C142.672 13.1773 142.656 13.3579 142.627 13.5054L139.034 13.5054C139.05 14.0383 139.221 14.4442 139.554 14.7254C139.858 14.977 140.25 15.1027 140.73 15.1027C141.262 15.1027 141.747 15.0181 142.184 14.8478L142.371 15.6801C141.86 15.9019 141.259 16.0129 140.562 16.0129C139.728 16.0129 139.07 15.767 138.594 15.2754C138.117 14.7837 137.88 14.124 137.88 13.2962C137.88 12.4833 138.101 11.8064 138.545 11.2667C139.01 10.6905 139.637 10.4023 140.43 10.4023C141.205 10.4023 141.794 10.6905 142.192 11.2667C142.513 11.7241 142.672 12.29 142.672 12.9623ZM141.528 12.6525C141.538 12.2969 141.459 11.9905 141.296 11.7321C141.088 11.3994 140.771 11.2324 140.343 11.2324C139.952 11.2324 139.633 11.3948 139.389 11.7206C139.19 11.9802 139.072 12.29 139.034 12.6525L141.528 12.6525Z" fill="white"/>
</g>
<defs>
<clipPath id="clip0_5925_35102">
<rect width="162" height="48" fill="white"/>
</clipPath>
</defs>
</svg>
