<svg width="26" height="24" viewBox="0 0 26 24" fill="none" xmlns="http://www.w3.org/2000/svg">
<path fill-rule="evenodd" clip-rule="evenodd" d="M7.71953 5H5.68147H3.64342C3.08062 5 2.62439 5.44772 2.62439 6C2.62439 6.55228 3.08062 7 3.64342 7H4.66245V20C4.66245 21.6569 6.03115 23 7.71953 23H17.9098C19.5982 23 20.9669 21.6569 20.9669 20V7H21.9859C22.5487 7 23.0049 6.55228 23.0049 6C23.0049 5.44772 22.5487 5 21.9859 5H19.9479H17.9098V4C17.9098 2.34315 16.5411 1 14.8527 1H10.7766C9.08823 1 7.71953 2.34315 7.71953 4V5ZM9.75758 5H15.8717V4C15.8717 3.44772 15.4155 3 14.8527 3H10.7766C10.2138 3 9.75758 3.44772 9.75758 4V5ZM16.8908 7H8.73856H6.7005V20C6.7005 20.5523 7.15673 21 7.71953 21H17.9098C18.4726 21 18.9288 20.5523 18.9288 20V7H16.8908ZM9.75758 11V17C9.75758 17.5523 10.2138 18 10.7766 18C11.3394 18 11.7956 17.5523 11.7956 17V11C11.7956 10.4477 11.3394 10 10.7766 10C10.2138 10 9.75758 10.4477 9.75758 11ZM13.8337 17V11C13.8337 10.4477 14.2899 10 14.8527 10C15.4155 10 15.8717 10.4477 15.8717 11V17C15.8717 17.5523 15.4155 18 14.8527 18C14.2899 18 13.8337 17.5523 13.8337 17Z" fill="#EC4E47"/>
<mask id="mask0" mask-type="alpha" maskUnits="userSpaceOnUse" x="2" y="1" width="22" height="22">
<path fill-rule="evenodd" clip-rule="evenodd" d="M7.71953 5H5.68147H3.64342C3.08062 5 2.62439 5.44772 2.62439 6C2.62439 6.55228 3.08062 7 3.64342 7H4.66245V20C4.66245 21.6569 6.03115 23 7.71953 23H17.9098C19.5982 23 20.9669 21.6569 20.9669 20V7H21.9859C22.5487 7 23.0049 6.55228 23.0049 6C23.0049 5.44772 22.5487 5 21.9859 5H19.9479H17.9098V4C17.9098 2.34315 16.5411 1 14.8527 1H10.7766C9.08823 1 7.71953 2.34315 7.71953 4V5ZM9.75758 5H15.8717V4C15.8717 3.44772 15.4155 3 14.8527 3H10.7766C10.2138 3 9.75758 3.44772 9.75758 4V5ZM16.8908 7H8.73856H6.7005V20C6.7005 20.5523 7.15673 21 7.71953 21H17.9098C18.4726 21 18.9288 20.5523 18.9288 20V7H16.8908ZM9.75758 11V17C9.75758 17.5523 10.2138 18 10.7766 18C11.3394 18 11.7956 17.5523 11.7956 17V11C11.7956 10.4477 11.3394 10 10.7766 10C10.2138 10 9.75758 10.4477 9.75758 11ZM13.8337 17V11C13.8337 10.4477 14.2899 10 14.8527 10C15.4155 10 15.8717 10.4477 15.8717 11V17C15.8717 17.5523 15.4155 18 14.8527 18C14.2899 18 13.8337 17.5523 13.8337 17Z" fill="white"/>
</mask>
<g mask="url(#mask0)">
<rect x="0.586304" width="24.4567" height="24" fill="#EC4E47"/>
</g>
</svg>
