<svg width="24" height="25" viewBox="0 0 24 25" fill="none" xmlns="http://www.w3.org/2000/svg">
<path fill-rule="evenodd" clip-rule="evenodd" d="M3 7.34961H21C21.5523 7.34961 22 6.90189 22 6.34961C22 5.79732 21.5523 5.34961 21 5.34961H3C2.44772 5.34961 2 5.79732 2 6.34961C2 6.90189 2.44772 7.34961 3 7.34961ZM3 13.3496H21C21.5523 13.3496 22 12.9019 22 12.3496C22 11.7973 21.5523 11.3496 21 11.3496H3C2.44772 11.3496 2 11.7973 2 12.3496C2 12.9019 2.44772 13.3496 3 13.3496ZM15.3 19.3496H2.7C2.3134 19.3496 2 18.9019 2 18.3496C2 17.7973 2.3134 17.3496 2.7 17.3496H15.3C15.6866 17.3496 16 17.7973 16 18.3496C16 18.9019 15.6866 19.3496 15.3 19.3496Z" fill="#3369E7"/>
<mask id="mask0" mask-type="alpha" maskUnits="userSpaceOnUse" x="2" y="5" width="20" height="15">
<path fill-rule="evenodd" clip-rule="evenodd" d="M3 7.34961H21C21.5523 7.34961 22 6.90189 22 6.34961C22 5.79732 21.5523 5.34961 21 5.34961H3C2.44772 5.34961 2 5.79732 2 6.34961C2 6.90189 2.44772 7.34961 3 7.34961ZM3 13.3496H21C21.5523 13.3496 22 12.9019 22 12.3496C22 11.7973 21.5523 11.3496 21 11.3496H3C2.44772 11.3496 2 11.7973 2 12.3496C2 12.9019 2.44772 13.3496 3 13.3496ZM15.3 19.3496H2.7C2.3134 19.3496 2 18.9019 2 18.3496C2 17.7973 2.3134 17.3496 2.7 17.3496H15.3C15.6866 17.3496 16 17.7973 16 18.3496C16 18.9019 15.6866 19.3496 15.3 19.3496Z" fill="white"/>
</mask>
<g mask="url(#mask0)">
<path fill-rule="evenodd" clip-rule="evenodd" d="M0 0.349609H24V24.3496H0V0.349609Z" fill="#3369E7"/>
</g>
</svg>
