<svg width="40" height="40" viewBox="0 0 40 40" fill="none" xmlns="http://www.w3.org/2000/svg">
<path d="M0 20C0 8.95431 8.95431 0 20 0C31.0457 0 40 8.95431 40 20C40 31.0457 31.0457 40 20 40C8.95431 40 0 31.0457 0 20Z" fill="#0DC143"/>
<path d="M21.9894 14.852C22.7687 15.0038 23.4849 15.3842 24.0464 15.9446C24.6079 16.505 24.989 17.2199 25.1411 17.9977M21.9894 11.6665C23.6085 11.846 25.1184 12.5697 26.2711 13.7188C27.4238 14.8678 28.1508 16.3739 28.3327 17.9897M27.5348 24.3448V26.734C27.5357 26.9557 27.4902 27.1753 27.4011 27.3785C27.3121 27.5817 27.1815 27.7641 27.0178 27.9141C26.8541 28.064 26.6607 28.1782 26.4502 28.2492C26.2397 28.3203 26.0167 28.3467 25.7954 28.3267C23.3401 28.0604 20.9816 27.223 18.9095 25.8818C16.9816 24.6591 15.3471 23.0278 14.1221 21.1036C12.7736 19.026 11.9344 16.6606 11.6725 14.199C11.6526 13.9788 11.6788 13.7568 11.7495 13.5472C11.8202 13.3377 11.9339 13.1451 12.0832 12.9818C12.2326 12.8185 12.4144 12.688 12.617 12.5987C12.8197 12.5093 13.0388 12.4631 13.2603 12.4629H15.654C16.0412 12.4591 16.4167 12.5959 16.7103 12.848C17.0039 13.1 17.1956 13.4499 17.2498 13.8326C17.3509 14.5972 17.5382 15.3479 17.8084 16.0705C17.9157 16.3555 17.9389 16.6653 17.8753 16.9631C17.8117 17.2609 17.6638 17.5343 17.4493 17.7508L16.436 18.7622C17.5718 20.756 19.2258 22.4068 21.2234 23.5405L22.2367 22.5291C22.4537 22.315 22.7275 22.1674 23.0259 22.1039C23.3243 22.0404 23.6347 22.0636 23.9203 22.1707C24.6442 22.4403 25.3964 22.6273 26.1624 22.7282C26.55 22.7828 26.904 22.9776 27.157 23.2757C27.41 23.5738 27.5445 23.9543 27.5348 24.3448Z" stroke="white" stroke-width="2" stroke-linecap="round" stroke-linejoin="round"/>
</svg>
