<svg width="48" height="48" viewBox="0 0 48 48" fill="none" xmlns="http://www.w3.org/2000/svg">
<rect x="0.5" y="0.5" width="47" height="47" rx="23.5" fill="white" stroke="#C6C6C6"/>
<path d="M38.0003 24.3219C38.0003 23.3703 37.9215 22.4135 37.7536 21.4773H24.2842V26.8683H31.9975C31.6774 28.6069 30.649 30.145 29.1431 31.1224V34.6203H33.7448C36.4471 32.182 38.0003 28.5812 38.0003 24.3219Z" fill="#4285F4"/>
<path d="M24.2835 38C28.135 38 31.3829 36.7603 33.7494 34.6204L29.1477 31.1224C27.8674 31.9763 26.2145 32.4599 24.2888 32.4599C20.5633 32.4599 17.4045 29.9959 16.2711 26.6831H11.5225V30.2891C13.9466 35.0165 18.8842 38 24.2835 38Z" fill="#34A853"/>
<path d="M16.2664 26.6834C15.6682 24.9447 15.6682 23.062 16.2664 21.3233V17.7173H11.523C9.49756 21.6731 9.49756 26.3336 11.523 30.2893L16.2664 26.6834Z" fill="#FBBC04"/>
<path d="M24.2835 15.5411C26.3194 15.5102 28.2871 16.2612 29.7616 17.6399L33.8386 13.6429C31.257 11.2664 27.8306 9.95979 24.2835 10.0009C18.8842 10.0009 13.9466 12.9845 11.5225 17.717L16.2659 21.323C17.394 18.0051 20.5581 15.5411 24.2835 15.5411Z" fill="#EA4335"/>
</svg>
