<svg width="162" height="48" viewBox="0 0 162 48" fill="none" xmlns="http://www.w3.org/2000/svg">
<g clip-path="url(#clip0_5925_35103)">
<path d="M156 8.09618e-07L6 3.11392e-08C2.68629 1.39415e-08 -1.39415e-08 2.68629 -3.11392e-08 6L-2.17974e-07 42C-2.35172e-07 45.3137 2.68629 48 6 48L156 48C159.314 48 162 45.3137 162 42L162 6C162 2.68629 159.314 8.26816e-07 156 8.09618e-07Z" fill="black"/>
<path d="M156 0.960001C157.337 0.960001 158.619 1.491 159.564 2.43618C160.509 3.38137 161.04 4.66331 161.04 6L161.04 42C161.04 43.3367 160.509 44.6186 159.564 45.5638C158.619 46.509 157.337 47.04 156 47.04L6 47.04C4.66331 47.04 3.38136 46.509 2.43618 45.5638C1.491 44.6186 0.96 43.3367 0.96 42L0.96 6C0.96 4.66331 1.491 3.38137 2.43618 2.43618C3.38137 1.491 4.66331 0.96 6 0.96L156 0.960001ZM156 8.09618e-07L6 3.11392e-08C4.4087 2.28806e-08 2.88258 0.632141 1.75736 1.75736C0.632141 2.88258 -2.28805e-08 4.4087 -3.11392e-08 6L-2.17974e-07 42C-2.26233e-07 43.5913 0.632141 45.1174 1.75736 46.2426C2.88258 47.3679 4.4087 48 6 48L156 48C157.591 48 159.117 47.3679 160.243 46.2426C161.368 45.1174 162 43.5913 162 42L162 6C162 4.4087 161.368 2.88258 160.243 1.75736C159.117 0.632142 157.591 8.17877e-07 156 8.09618e-07Z" fill="#A6A6A6"/>
<path d="M81.7683 26.1005C80.7607 26.1053 79.777 26.4084 78.9415 26.9717C78.106 27.5349 77.456 28.3331 77.0737 29.2654C76.6913 30.1977 76.5938 31.2224 76.7933 32.2101C76.9927 33.1978 77.4804 34.1043 78.1945 34.8152C78.9087 35.526 79.8175 36.0094 80.8062 36.2042C81.7948 36.3991 82.819 36.2967 83.7495 35.91C84.68 35.5233 85.4751 34.8696 86.0345 34.0314C86.5938 33.1933 86.8923 32.2082 86.8923 31.2005C86.9021 30.5261 86.7761 29.8565 86.5217 29.2317C86.2674 28.607 85.8899 28.0398 85.4118 27.5639C84.9337 27.0881 84.3648 26.7133 83.7388 26.4619C83.1129 26.2105 82.4427 26.0876 81.7683 26.1005ZM81.7683 34.2965C81.1486 34.3399 80.5302 34.1958 79.9935 33.883C79.4567 33.5702 79.0265 33.1032 78.7587 32.5427C78.491 31.9821 78.398 31.354 78.4919 30.7399C78.5859 30.1258 78.8624 29.5542 79.2855 29.0994C79.7086 28.6445 80.2588 28.3275 80.8644 28.1895C81.4701 28.0514 82.1033 28.0988 82.6817 28.3254C83.2601 28.5521 83.757 28.9474 84.1077 29.4602C84.4584 29.9729 84.6468 30.5793 84.6483 31.2005C84.6677 31.5942 84.608 31.9877 84.4728 32.3578C84.3376 32.728 84.1297 33.0674 83.8613 33.3559C83.5929 33.6445 83.2694 33.8764 82.9099 34.0379C82.5505 34.1995 82.1623 34.2874 81.7683 34.2965ZM70.5963 26.1005C69.5881 26.1029 68.6033 26.404 67.7662 26.9659C66.9291 27.5277 66.2773 28.325 65.8931 29.2571C65.5089 30.1893 65.4096 31.2143 65.6078 32.2028C65.8059 33.1913 66.2926 34.0989 67.0063 34.811C67.72 35.523 68.6288 36.0076 69.6178 36.2034C70.6067 36.3992 71.6316 36.2975 72.5628 35.9112C73.494 35.5248 74.2898 34.8711 74.8496 34.0327C75.4095 33.1943 75.7083 32.2087 75.7083 31.2005C75.7181 30.5261 75.5921 29.8565 75.3377 29.2317C75.0834 28.607 74.7059 28.0398 74.2278 27.5639C73.7497 27.0881 73.1808 26.7133 72.5548 26.4619C71.9289 26.2105 71.2587 26.0876 70.5843 26.1005L70.5963 26.1005ZM70.5963 34.2965C69.9763 34.3423 69.3569 34.2004 68.8187 33.8892C68.2805 33.578 67.8484 33.112 67.5787 32.5518C67.3091 31.9917 67.2143 31.3633 67.3068 30.7485C67.3992 30.1337 67.6746 29.561 68.0971 29.105C68.5196 28.6489 69.0696 28.3306 69.6755 28.1915C70.2814 28.0523 70.9152 28.0989 71.4943 28.325C72.0735 28.5511 72.5711 28.9463 72.9225 29.4592C73.2738 29.9721 73.4626 30.5788 73.4643 31.2005C73.4836 31.5942 73.424 31.9877 73.2888 32.3578C73.1536 32.728 72.9457 33.0674 72.6773 33.3559C72.4089 33.6445 72.0854 33.8764 71.7259 34.0379C71.3665 34.1995 70.9783 34.2874 70.5843 34.2965L70.5963 34.2965ZM57.2883 27.6725L57.2883 29.8325L62.4723 29.8325C62.391 30.8499 61.9681 31.8099 61.2723 32.5565C60.7537 33.0848 60.1302 33.4987 59.442 33.7715C58.7538 34.0443 58.016 34.17 57.2763 34.1405C55.7487 34.1405 54.2836 33.5337 53.2034 32.4535C52.1232 31.3733 51.5163 29.9082 51.5163 28.3805C51.5163 26.8529 52.1232 25.3878 53.2034 24.3076C54.2836 23.2274 55.7487 22.6205 57.2763 22.6205C58.7377 22.5967 60.1488 23.1534 61.2003 24.1685L62.7243 22.6445C62.0145 21.9258 61.1676 21.3568 60.2339 20.9713C59.3001 20.5859 58.2985 20.3918 57.2883 20.4005C56.2215 20.359 55.1573 20.5333 54.1595 20.9129C53.1616 21.2925 52.2507 21.8697 51.4812 22.6097C50.7118 23.3498 50.0996 24.2376 49.6815 25.22C49.2634 26.2023 49.0479 27.2589 49.0479 28.3265C49.0479 29.3941 49.2634 30.4508 49.6815 31.4331C50.0996 32.4154 50.7118 33.3032 51.4812 34.0433C52.2507 34.7834 53.1616 35.3606 54.1595 35.7402C55.1573 36.1198 56.2215 36.2941 57.2883 36.2525C58.3155 36.2989 59.3406 36.1248 60.2948 35.7419C61.2491 35.359 62.1102 34.7761 62.8203 34.0325C64.0775 32.6512 64.7488 30.8354 64.6923 28.9685C64.6962 28.5137 64.656 28.0596 64.5723 27.6125L57.2883 27.6725ZM111.66 29.3525C111.347 28.4318 110.762 27.6279 109.982 27.0472C109.202 26.4664 108.264 26.1363 107.292 26.1005C106.636 26.0992 105.986 26.2326 105.383 26.4924C104.781 26.7521 104.237 27.1328 103.788 27.6108C103.338 28.0888 102.991 28.654 102.768 29.2714C102.545 29.8888 102.451 30.5454 102.492 31.2005C102.478 31.8712 102.598 32.538 102.847 33.161C103.096 33.7839 103.468 34.3504 103.941 34.8264C104.413 35.3025 104.977 35.6784 105.598 35.9316C106.22 36.1849 106.886 36.3104 107.556 36.3005C108.396 36.3051 109.223 36.1013 109.964 35.7076C110.706 35.3139 111.338 34.7425 111.804 34.0445L110.064 32.8445C109.805 33.2775 109.437 33.6356 108.997 33.8838C108.558 34.132 108.061 34.2618 107.556 34.2605C107.037 34.2803 106.523 34.1433 106.082 33.8672C105.641 33.5912 105.293 33.1888 105.084 32.7125L111.912 29.8925L111.66 29.3525ZM104.7 31.0565C104.676 30.6854 104.726 30.3131 104.847 29.9615C104.969 29.6099 105.159 29.286 105.407 29.0088C105.655 28.7317 105.956 28.5068 106.292 28.3474C106.628 28.188 106.993 28.0973 107.364 28.0805C107.751 28.055 108.137 28.1438 108.475 28.3358C108.812 28.5278 109.085 28.8146 109.26 29.1605L104.7 31.0565ZM99.1563 36.0005L101.4 36.0005L101.4 21.0005L99.1563 21.0005L99.1563 36.0005ZM95.4843 27.2405L95.4003 27.2405C95.0621 26.8624 94.6478 26.56 94.1846 26.3532C93.7213 26.1464 93.2196 26.0399 92.7123 26.0405C91.4009 26.1041 90.1643 26.6698 89.2587 27.6204C88.3531 28.571 87.8479 29.8336 87.8479 31.1465C87.8479 32.4595 88.3531 33.722 89.2587 34.6726C90.1643 35.6232 91.4009 36.1889 92.7123 36.2525C93.2208 36.2611 93.725 36.1581 94.1895 35.9507C94.6539 35.7434 95.0672 35.4368 95.4003 35.0525L95.4723 35.0525L95.4723 35.7845C95.4723 37.7405 94.4283 38.7845 92.7483 38.7845C92.1888 38.7714 91.6458 38.5921 91.1885 38.2695C90.7312 37.9468 90.3802 37.4953 90.1803 36.9725L88.2243 37.7885C88.5925 38.6842 89.2199 39.4494 90.0259 39.986C90.832 40.5227 91.78 40.8063 92.7483 40.8005C95.3763 40.8005 97.5483 39.2525 97.5483 35.4845L97.5483 26.4005L95.4843 26.4005L95.4843 27.2405ZM92.9163 34.2965C92.1423 34.2283 91.4218 33.8726 90.897 33.2995C90.3723 32.7265 90.0812 31.9776 90.0812 31.2005C90.0812 30.4235 90.3723 29.6746 90.897 29.1015C91.4218 28.5285 92.1423 28.1727 92.9163 28.1045C93.3001 28.1242 93.6761 28.2205 94.0221 28.3878C94.3681 28.555 94.6771 28.7898 94.9309 29.0783C95.1848 29.3668 95.3783 29.7032 95.5002 30.0677C95.622 30.4322 95.6696 30.8174 95.6403 31.2005C95.6731 31.5854 95.6274 31.9728 95.5061 32.3395C95.3848 32.7062 95.1904 33.0445 94.9347 33.3339C94.6789 33.6233 94.3671 33.8578 94.0182 34.0233C93.6692 34.1887 93.2903 34.2817 92.9043 34.2965L92.9163 34.2965ZM122.172 21.0005L116.808 21.0005L116.808 36.0005L119.052 36.0005L119.052 30.3125L122.184 30.3125C122.824 30.3585 123.466 30.2722 124.071 30.059C124.675 29.8458 125.23 29.5104 125.699 29.0735C126.168 28.6367 126.543 28.1078 126.799 27.5199C127.055 26.932 127.187 26.2977 127.187 25.6565C127.187 25.0153 127.055 24.381 126.799 23.7931C126.543 23.2052 126.168 22.6764 125.699 22.2395C125.23 21.8027 124.675 21.4672 124.071 21.2541C123.466 21.0409 122.824 20.9546 122.184 21.0005L122.172 21.0005ZM122.172 28.2005L119.04 28.2005L119.04 23.0885L122.22 23.0885C122.903 23.0885 123.558 23.3597 124.04 23.8424C124.523 24.3252 124.794 24.9799 124.794 25.6625C124.794 26.3452 124.523 26.9999 124.04 27.4826C123.558 27.9653 122.903 28.2365 122.22 28.2365L122.172 28.2005ZM136.008 26.0405C135.191 25.9917 134.378 26.1826 133.668 26.5898C132.958 26.997 132.383 27.6027 132.012 28.3325L134.004 29.1605C134.201 28.7986 134.498 28.5015 134.86 28.3055C135.223 28.1095 135.634 28.023 136.044 28.0565C136.329 28.0233 136.618 28.0471 136.893 28.1265C137.169 28.206 137.426 28.3395 137.649 28.5194C137.873 28.6992 138.058 28.9218 138.195 29.174C138.331 29.4262 138.416 29.7031 138.444 29.9885L138.444 30.1445C137.724 29.7629 136.92 29.5651 136.104 29.5685C133.956 29.5685 131.784 30.7685 131.784 32.9405C131.806 33.4037 131.919 33.8578 132.119 34.2762C132.319 34.6946 132.6 35.0686 132.947 35.3763C133.294 35.6839 133.699 35.9189 134.138 36.0674C134.577 36.2158 135.042 36.2747 135.504 36.2405C136.069 36.2811 136.635 36.1688 137.142 35.9155C137.649 35.6621 138.078 35.277 138.384 34.8005L138.456 34.8005L138.456 36.0005L140.616 36.0005L140.616 30.2285C140.616 27.6005 138.624 26.0765 136.068 26.0765L136.008 26.0405ZM135.732 34.2605C135 34.2605 133.98 33.8885 133.98 32.9885C133.98 31.7885 135.252 31.3925 136.38 31.3925C137.093 31.3749 137.798 31.549 138.42 31.8965C138.345 32.5462 138.038 33.1469 137.555 33.5879C137.072 34.0289 136.446 34.2806 135.792 34.2965L135.732 34.2605ZM148.488 26.4005L145.92 32.9045L145.848 32.9045L143.184 26.4005L140.784 26.4005L144.78 35.4965L142.5 40.5485L144.84 40.5485L150.984 26.4005L148.488 26.4005ZM128.316 36.0005L130.56 36.0005L130.56 21.0005L128.316 21.0005L128.316 36.0005Z" fill="white"/>
<path d="M56.8294 12.3628C56.8498 12.803 56.7805 13.2427 56.6258 13.6553C56.4711 14.0678 56.2341 14.4446 55.9294 14.7628C55.5891 15.1164 55.1781 15.3942 54.7232 15.5782C54.2683 15.7622 53.7797 15.8483 53.2894 15.8308C52.5453 15.825 51.8196 15.5998 51.203 15.1833C50.5865 14.7668 50.1066 14.1776 49.8234 13.4895C49.5402 12.8015 49.4664 12.0452 49.6112 11.3154C49.756 10.5855 50.113 9.91468 50.6374 9.38685C50.982 9.03499 51.3952 8.75759 51.8514 8.57183C52.3075 8.38606 52.797 8.29588 53.2894 8.30685C53.7967 8.30516 54.299 8.40725 54.7654 8.60685C55.1996 8.78199 55.5861 9.05752 55.8934 9.41085L55.2574 10.0468C55.0179 9.76196 54.7154 9.53668 54.3738 9.38881C54.0323 9.24094 53.661 9.17454 53.2894 9.19485C52.9145 9.19301 52.5432 9.26688 52.1976 9.41203C51.852 9.55719 51.5393 9.77064 51.2782 10.0396C51.0171 10.3085 50.813 10.6274 50.6781 10.9771C50.5433 11.3269 50.4804 11.7002 50.4934 12.0748C50.4855 12.6342 50.6435 13.1834 50.9474 13.6531C51.2512 14.1227 51.6874 14.4919 52.2009 14.714C52.7143 14.936 53.2821 15.0011 53.8324 14.9008C54.3828 14.8006 54.8911 14.5397 55.2934 14.1508C55.6626 13.7507 55.8756 13.2311 55.8934 12.6868L53.2894 12.6868L53.2894 11.8228L56.7814 11.8228C56.8134 12.0011 56.8294 12.1818 56.8294 12.3628ZM62.3254 9.36285L59.0854 9.36285L59.0854 11.6428L62.0374 11.6428L62.0374 12.5068L59.0854 12.5068L59.0854 14.7868L62.3254 14.7868L62.3254 15.6748L58.1254 15.6748L58.1254 8.47485L62.3254 8.47485L62.3254 9.36285ZM66.2614 15.6748L65.3374 15.6748L65.3374 9.36285L63.3214 9.36285L63.3214 8.47485L68.3254 8.47485L68.3254 9.36285L66.2614 9.36285L66.2614 15.6748ZM71.8534 15.6748L71.8534 8.47485L72.7774 8.47485L72.7774 15.6748L71.8534 15.6748ZM76.8814 15.6748L75.9574 15.6748L75.9574 9.36285L73.9414 9.36285L73.9414 8.47485L78.8854 8.47485L78.8854 9.36285L76.8814 9.36285L76.8814 15.6748ZM88.2574 14.7388C87.5558 15.4365 86.6067 15.8281 85.6174 15.8281C84.628 15.8281 83.6789 15.4365 82.9774 14.7388C82.2955 14.0171 81.9156 13.0618 81.9156 12.0688C81.9156 11.0759 82.2955 10.1206 82.9774 9.39885C83.3231 9.05054 83.7344 8.7741 84.1875 8.58545C84.6406 8.39681 85.1266 8.29969 85.6174 8.29969C86.1082 8.29969 86.5941 8.39681 87.0472 8.58545C87.5003 8.7741 87.9116 9.05054 88.2574 9.39885C88.9419 10.1192 89.3237 11.0751 89.3237 12.0688C89.3237 13.0626 88.9419 14.0185 88.2574 14.7388ZM83.6614 14.1388C84.1809 14.6562 84.8842 14.9467 85.6174 14.9467C86.3505 14.9467 87.0539 14.6562 87.5734 14.1388C88.0861 13.5737 88.37 12.8379 88.37 12.0748C88.37 11.3118 88.0861 10.576 87.5734 10.0108C87.0539 9.4935 86.3505 9.20304 85.6174 9.20304C84.8842 9.20304 84.1809 9.4935 83.6614 10.0108C83.1487 10.576 82.8647 11.3118 82.8647 12.0748C82.8647 12.8379 83.1487 13.5737 83.6614 14.1388ZM90.6214 15.6748L90.6214 8.47485L91.7494 8.47485L95.2534 14.0788L95.2534 8.47485L96.1774 8.47485L96.1774 15.6748L95.2174 15.6748L91.5574 9.80685L91.5574 15.6748L90.6214 15.6748Z" fill="white"/>
<path fill-rule="evenodd" clip-rule="evenodd" d="M85.6174 8.41969C85.1424 8.41969 84.6721 8.51368 84.2337 8.69624C83.7956 8.8786 83.398 9.14576 83.0636 9.48234C82.4034 10.1817 82.0356 11.1071 82.0356 12.0688C82.0356 13.0305 82.4033 13.9558 83.0633 14.6551C83.7422 15.3295 84.6604 15.7081 85.6174 15.7081C86.5745 15.7081 87.4926 15.3295 88.1716 14.6549C88.8342 13.957 89.2037 13.0313 89.2037 12.0688C89.2037 11.1063 88.8341 10.1805 88.1713 9.48249C87.8369 9.14584 87.4392 8.87863 87.0011 8.69624C86.5626 8.51368 86.0923 8.41969 85.6174 8.41969ZM84.1414 8.47467C84.6091 8.27994 85.1107 8.17969 85.6174 8.17969C86.124 8.17969 86.6256 8.27994 87.0933 8.47467C87.561 8.6694 87.9856 8.95476 88.3425 9.31431L88.3444 9.31617C89.0502 10.0589 89.4437 11.0443 89.4437 12.0688C89.4437 13.0934 89.0501 14.0788 88.3444 14.8215L88.342 14.824C87.618 15.5439 86.6384 15.9481 85.6174 15.9481C84.5963 15.9481 83.6168 15.5439 82.8928 14.8239L82.8901 14.8213C82.1872 14.0772 81.7956 13.0924 81.7956 12.0688C81.7956 11.0453 82.1872 10.0605 82.8901 9.31644L82.8922 9.31428C83.2491 8.95474 83.6737 8.6694 84.1414 8.47467ZM53.2867 8.42682C52.8107 8.41621 52.3376 8.50339 51.8966 8.68297C51.4557 8.86254 51.0563 9.13069 50.7231 9.47082L50.7225 9.47143C50.2147 9.9825 49.8691 10.6321 49.7289 11.3387C49.5887 12.0454 49.6602 12.7777 49.9344 13.4439C50.2085 14.1101 50.6732 14.6806 51.2702 15.0838C51.8672 15.4871 52.5699 15.7052 53.2903 15.7109L53.2936 15.7109C53.7672 15.7277 54.2389 15.6447 54.6782 15.467C55.1174 15.2893 55.5142 15.0211 55.8428 14.6797C56.1363 14.3733 56.3644 14.0104 56.5134 13.6131C56.6624 13.2158 56.7291 12.7923 56.7095 12.3684L56.8294 12.3628L56.7094 12.3628C56.7094 12.2222 56.6994 12.0819 56.6793 11.9428L53.4094 11.9428L53.4094 12.5668L56.0173 12.5668L56.0133 12.6908C55.9946 13.2638 55.7703 13.8109 55.3816 14.2322L55.3769 14.2373C54.9576 14.6425 54.4276 14.9144 53.8539 15.0189C53.2802 15.1234 52.6885 15.0556 52.1532 14.8241C51.618 14.5926 51.1634 14.2078 50.8466 13.7182C50.5304 13.2295 50.3657 12.6581 50.3733 12.0761C50.3603 11.6863 50.4259 11.2979 50.5662 10.934C50.7069 10.5692 50.9198 10.2365 51.1921 9.95599C51.4645 9.67546 51.7907 9.45281 52.1511 9.3014C52.5105 9.15045 52.8966 9.0734 53.2864 9.07484C53.6754 9.05413 54.064 9.1239 54.4215 9.27869C54.7401 9.41663 55.0264 9.61873 55.2626 9.87188L55.7278 9.40669C55.4461 9.10732 55.1025 8.87224 54.7205 8.71814L54.7181 8.7172C54.2668 8.52404 53.7807 8.42521 53.2898 8.42685L53.2867 8.42682ZM56.9494 12.3601C56.9701 12.8155 56.8982 13.2705 56.7382 13.6974C56.5777 14.1252 56.332 14.5159 56.016 14.8459C55.664 15.2115 55.2387 15.4991 54.7682 15.6894C54.2982 15.8796 53.7934 15.9686 53.2868 15.9508C52.5197 15.9445 51.7715 15.7121 51.1359 15.2827C50.4997 14.853 50.0046 14.2451 49.7124 13.5352C49.4203 12.8253 49.3441 12.045 49.4935 11.292C49.6429 10.5392 50.0111 9.84712 50.5519 9.30257C50.908 8.93913 51.3349 8.65259 51.8061 8.46069C52.277 8.26893 52.7822 8.17573 53.2905 8.18685C53.8132 8.18531 54.3308 8.29052 54.8114 8.49603C55.2628 8.67829 55.6645 8.96479 55.9839 9.33211L56.0574 9.41657L55.2497 10.2242L55.1655 10.1241C54.938 9.85343 54.6506 9.63941 54.3261 9.49894C54.0017 9.35846 53.649 9.29538 53.2959 9.31467L53.2888 9.31506C52.9301 9.3133 52.5748 9.38378 52.2441 9.52267C51.9134 9.66157 51.6141 9.86582 51.3643 10.1232C51.1145 10.3805 50.9192 10.6857 50.7901 11.0203C50.6611 11.355 50.6009 11.7122 50.6133 12.0707L50.6135 12.0765C50.606 12.6122 50.7571 13.1381 51.0481 13.5879C51.3391 14.0376 51.7568 14.3912 52.2485 14.6038C52.7402 14.8165 53.2839 14.8787 53.8109 14.7828C54.3368 14.687 54.8227 14.438 55.2075 14.067C55.5277 13.7188 55.7233 13.2757 55.7658 12.8068L53.1694 12.8068L53.1694 11.7028L56.8817 11.7028L56.8995 11.8016C56.9326 11.986 56.9493 12.1728 56.9494 12.3601ZM58.0054 8.35485L62.4454 8.35485L62.4454 9.48285L59.2054 9.48285L59.2054 11.5228L62.1574 11.5228L62.1574 12.6268L59.2054 12.6268L59.2054 14.6668L62.4454 14.6668L62.4454 15.7948L58.0054 15.7948L58.0054 8.35485ZM58.2454 8.59485L58.2454 15.5548L62.2054 15.5548L62.2054 14.9068L58.9654 14.9068L58.9654 12.3868L61.9174 12.3868L61.9174 11.7628L58.9654 11.7628L58.9654 9.24285L62.2054 9.24285L62.2054 8.59485L58.2454 8.59485ZM63.2014 8.35485L68.4454 8.35485L68.4454 9.48285L66.3814 9.48285L66.3814 15.7948L65.2174 15.7948L65.2174 9.48285L63.2014 9.48285L63.2014 8.35485ZM63.4414 8.59485L63.4414 9.24285L65.4574 9.24285L65.4574 15.5548L66.1414 15.5548L66.1414 9.24285L68.2054 9.24285L68.2054 8.59485L63.4414 8.59485ZM71.7334 8.35485L72.8974 8.35485L72.8974 15.7948L71.7334 15.7948L71.7334 8.35485ZM71.9734 8.59485L71.9734 15.5548L72.6574 15.5548L72.6574 8.59485L71.9734 8.59485ZM73.8214 8.35485L79.0054 8.35485L79.0054 9.48285L77.0014 9.48285L77.0014 15.7948L75.8374 15.7948L75.8374 9.48285L73.8214 9.48285L73.8214 8.35485ZM74.0614 8.59485L74.0614 9.24285L76.0774 9.24285L76.0774 15.5548L76.7614 15.5548L76.7614 9.24285L78.7654 9.24285L78.7654 8.59485L74.0614 8.59485ZM90.5014 8.35485L91.8159 8.35485L95.1334 13.6606L95.1334 8.35485L96.2974 8.35485L96.2974 15.7948L95.1508 15.7948L91.6774 10.226L91.6774 15.7948L90.5014 15.7948L90.5014 8.35485ZM90.7414 8.59485L90.7414 15.5548L91.4374 15.5548L91.4374 9.38771L95.284 15.5548L96.0574 15.5548L96.0574 8.59485L95.3734 8.59485L95.3734 14.4971L91.6829 8.59485L90.7414 8.59485ZM83.5767 9.92582C84.1187 9.38608 84.8525 9.08304 85.6174 9.08304C86.3823 9.08304 87.116 9.38608 87.658 9.92582L87.6624 9.93012C88.1951 10.5174 88.49 11.282 88.49 12.0748C88.49 12.8677 88.195 13.6322 87.6623 14.2195L87.6582 14.224C87.1161 14.7637 86.3823 15.0667 85.6174 15.0667C84.8525 15.0667 84.1187 14.7636 83.5767 14.2239L83.6614 14.1388L83.5725 14.2195C83.0398 13.6322 82.7447 12.8677 82.7447 12.0748C82.7447 11.282 83.0398 10.5175 83.5725 9.93022L83.5767 9.92582ZM83.7482 14.056C84.245 14.5496 84.917 14.8267 85.6174 14.8267C86.3178 14.8267 86.9897 14.5496 87.4865 14.056C87.9779 13.5132 88.25 12.8071 88.25 12.0748C88.25 11.3426 87.9779 10.6365 87.4865 10.0937C86.9897 9.60012 86.3178 9.32304 85.6174 9.32304C84.917 9.32304 84.245 9.60012 83.7482 10.0937C83.2568 10.6365 82.9847 11.3426 82.9847 12.0748C82.9847 12.8071 83.2568 13.5132 83.7482 14.056Z" fill="white"/>
<path d="M12.528 9.04885C12.1369 9.51818 11.9394 10.119 11.976 10.7288L11.976 37.2728C11.9394 37.8827 12.1369 38.4835 12.528 38.9528L12.612 39.0368L27.48 24.1808L27.48 23.8328L12.612 8.96484L12.528 9.04885Z" fill="url(#paint0_linear_5925_35103)"/>
<path d="M32.3995 29.1392L27.4795 24.1832L27.4795 23.8352L32.3995 18.8672L32.5075 18.9272L38.3995 22.2752C40.0795 23.2232 40.0795 24.7832 38.3995 25.7432L32.5315 29.0792L32.3995 29.1392Z" fill="url(#paint1_linear_5925_35103)"/>
<path d="M32.5443 29.064L27.4803 24L12.5283 38.952C12.8708 39.253 13.3076 39.425 13.7633 39.4381C14.2191 39.4513 14.6651 39.3048 15.0243 39.024L32.5563 29.064" fill="url(#paint2_linear_5925_35103)"/>
<path d="M32.5436 18.9374L15.0116 8.97743C14.6524 8.69664 14.2064 8.55017 13.7506 8.56331C13.2949 8.57646 12.8581 8.7484 12.5156 9.04943L27.4796 24.0014L32.5436 18.9374Z" fill="url(#paint3_linear_5925_35103)"/>
<path opacity="0.2" d="M32.4003 28.957L15.0123 38.857C14.6659 39.1161 14.2449 39.256 13.8123 39.256C13.3797 39.256 12.9588 39.1161 12.6123 38.857L12.5283 38.941L12.6123 39.025C12.958 39.2859 13.3793 39.427 13.8123 39.427C14.2454 39.427 14.6667 39.2859 15.0123 39.025L32.5443 29.065L32.4003 28.957Z" fill="black"/>
<path opacity="0.12" d="M12.528 38.784C12.1369 38.3147 11.9394 37.7138 11.976 37.104L11.976 37.284C11.9394 37.8939 12.1369 38.4947 12.528 38.964L12.612 38.88L12.528 38.784ZM38.4 25.56L32.4 28.956L32.508 29.064L38.4 25.728C38.7343 25.571 39.0213 25.3285 39.232 25.0251C39.4427 24.7217 39.5696 24.3681 39.6 24C39.5325 24.3344 39.3892 24.649 39.1812 24.9194C38.9732 25.1898 38.7059 25.409 38.4 25.56Z" fill="black"/>
<path opacity="0.25" d="M15.0119 9.14686L38.3999 22.4429C38.7058 22.5939 38.9731 22.813 39.1811 23.0834C39.3891 23.3539 39.5324 23.6684 39.5999 24.0029C39.5695 23.6347 39.4425 23.2811 39.2319 22.9777C39.0212 22.6744 38.7342 22.4319 38.3999 22.2749L15.0119 8.97885C13.3319 8.03085 11.9639 8.82286 11.9639 10.7429L11.9639 10.9229C11.9999 8.99086 13.3439 8.19886 15.0119 9.14686Z" fill="white"/>
</g>
<defs>
<linearGradient id="paint0_linear_5925_35103" x1="26.16" y1="10.4528" x2="6.02398" y2="30.5888" gradientUnits="userSpaceOnUse">
<stop stop-color="#00A0FF"/>
<stop offset="0.01" stop-color="#00A1FF"/>
<stop offset="0.26" stop-color="#00BEFF"/>
<stop offset="0.51" stop-color="#00D2FF"/>
<stop offset="0.76" stop-color="#00DFFF"/>
<stop offset="1" stop-color="#00E3FF"/>
</linearGradient>
<linearGradient id="paint1_linear_5925_35103" x1="40.5955" y1="24.0032" x2="11.5675" y2="24.0032" gradientUnits="userSpaceOnUse">
<stop stop-color="#FFE000"/>
<stop offset="0.41" stop-color="#FFBD00"/>
<stop offset="0.78" stop-color="#FFA500"/>
<stop offset="1" stop-color="#FF9C00"/>
</linearGradient>
<linearGradient id="paint2_linear_5925_35103" x1="29.7963" y1="26.76" x2="2.48431" y2="54.06" gradientUnits="userSpaceOnUse">
<stop stop-color="#FF3A44"/>
<stop offset="1" stop-color="#C31162"/>
</linearGradient>
<linearGradient id="paint3_linear_5925_35103" x1="8.75962" y1="0.217426" x2="20.9516" y2="12.4094" gradientUnits="userSpaceOnUse">
<stop stop-color="#32A071"/>
<stop offset="0.07" stop-color="#2DA771"/>
<stop offset="0.48" stop-color="#15CF74"/>
<stop offset="0.8" stop-color="#06E775"/>
<stop offset="1" stop-color="#00F076"/>
</linearGradient>
<clipPath id="clip0_5925_35103">
<rect width="162" height="48" fill="white"/>
</clipPath>
</defs>
</svg>
