<svg width="48" height="48" viewBox="0 0 48 48" fill="none" xmlns="http://www.w3.org/2000/svg">
<rect width="48" height="48" rx="24" fill="#A6398E"/>
<path d="M19.6677 24C19.6677 21.6069 21.6073 19.6663 24.0005 19.6663C26.3938 19.6663 28.3344 21.6069 28.3344 24C28.3344 26.3931 26.3938 28.3337 24.0005 28.3337C21.6073 28.3337 19.6677 26.3931 19.6677 24ZM17.3249 24C17.3249 27.6868 20.3136 30.6753 24.0005 30.6753C27.6875 30.6753 30.6761 27.6868 30.6761 24C30.6761 20.3132 27.6875 17.3247 24.0005 17.3247C20.3136 17.3247 17.3249 20.3132 17.3249 24ZM29.3803 17.06C29.3802 17.3685 29.4716 17.6702 29.6429 17.9268C29.8142 18.1834 30.0578 18.3834 30.3428 18.5016C30.6278 18.6198 30.9415 18.6508 31.2441 18.5907C31.5468 18.5307 31.8248 18.3822 32.0431 18.1641C32.2614 17.946 32.4101 17.6681 32.4704 17.3656C32.5307 17.063 32.4999 16.7493 32.382 16.4642C32.264 16.1791 32.0641 15.9354 31.8076 15.7639C31.5512 15.5923 31.2496 15.5007 30.941 15.5006C30.5274 15.5008 30.1302 15.6651 29.8377 15.9575C29.5452 16.2499 29.3807 16.6464 29.3803 17.06ZM18.7483 34.5817C17.4808 34.524 16.7919 34.3128 16.3341 34.1345C15.7271 33.8982 15.294 33.6168 14.8387 33.1621C14.3834 32.7074 14.1015 32.2748 13.8663 31.6678C13.6878 31.2102 13.4767 30.5211 13.419 29.2537C13.356 27.8834 13.3434 27.4717 13.3434 24.0001C13.3434 20.5285 13.357 20.118 13.419 18.7465C13.4768 17.4791 13.6894 16.7913 13.8663 16.3324C14.1025 15.7254 14.384 15.2924 14.8387 14.8371C15.2934 14.3818 15.7261 14.0999 16.3341 13.8647C16.7917 13.6862 17.4808 13.4751 18.7483 13.4175C20.1187 13.3545 20.5303 13.3419 24.0005 13.3419C27.4707 13.3419 27.8828 13.3555 29.2543 13.4175C30.5218 13.4752 31.2096 13.6879 31.6685 13.8647C32.2755 14.0999 32.7086 14.3824 33.1639 14.8371C33.6192 15.2918 33.9001 15.7254 34.1364 16.3324C34.3148 16.79 34.5259 17.4791 34.5836 18.7465C34.6466 20.118 34.6592 20.5285 34.6592 24.0001C34.6592 27.4717 34.6466 27.8822 34.5836 29.2537C34.5258 30.5211 34.3137 31.21 34.1364 31.6678C33.9001 32.2748 33.6186 32.7078 33.1639 33.1621C32.7092 33.6164 32.2755 33.8982 31.6685 34.1345C31.2109 34.313 30.5218 34.5241 29.2543 34.5817C27.8839 34.6447 27.4723 34.6573 24.0005 34.6573C20.5288 34.6573 20.1183 34.6447 18.7483 34.5817ZM18.6407 11.0787C17.2567 11.1418 16.311 11.3612 15.4851 11.6826C14.6297 12.0144 13.9057 12.4596 13.1821 13.182C12.4586 13.9044 12.0145 14.6296 11.6826 15.4849C11.3612 16.3113 11.1418 17.2564 11.0787 18.6404C11.0147 20.0265 11 20.4696 11 24C11 27.5304 11.0147 27.9735 11.0787 29.3596C11.1418 30.7437 11.3612 31.6887 11.6826 32.5151C12.0145 33.3699 12.4587 34.0959 13.1821 34.818C13.9056 35.54 14.6297 35.9846 15.4851 36.3174C16.3125 36.6388 17.2567 36.8582 18.6407 36.9213C20.0276 36.9843 20.47 37 24.0005 37C27.531 37 27.9742 36.9853 29.3604 36.9213C30.7445 36.8582 31.6895 36.6388 32.516 36.3174C33.3708 35.9846 34.0954 35.5404 34.8189 34.818C35.5425 34.0956 35.9856 33.3699 36.3185 32.5151C36.6398 31.6887 36.8603 30.7436 36.9223 29.3596C36.9853 27.9725 37 27.5304 37 24C37 20.4696 36.9853 20.0265 36.9223 18.6404C36.8593 17.2563 36.6398 16.3108 36.3185 15.4849C35.9856 14.6301 35.5413 13.9056 34.8189 13.182C34.0965 12.4585 33.3708 12.0144 32.517 11.6826C31.6895 11.3612 30.7444 11.1407 29.3614 11.0787C27.9752 11.0157 27.5321 11 24.0016 11C20.471 11 20.0276 11.0147 18.6407 11.0787Z" fill="white"/>
</svg>
