<svg width="48" height="48" viewBox="0 0 48 48" fill="none" xmlns="http://www.w3.org/2000/svg">
<rect width="48" height="48" rx="24" fill="#EE8208"/>
<path d="M23.9998 14.2351C25.6276 14.2351 26.9516 15.5772 26.9516 17.2271C26.9516 18.8757 25.6272 20.2178 23.9998 20.2178C22.3731 20.2178 21.0487 18.8757 21.0487 17.2271C21.0483 15.5769 22.3734 14.2351 23.9998 14.2351ZM23.9998 24.4508C27.9317 24.4508 31.1292 21.2108 31.1292 17.2271C31.1292 13.2414 27.932 10 23.9998 10C20.0683 10 16.8704 13.2417 16.8704 17.2271C16.8704 21.2108 20.0683 24.4508 23.9998 24.4508ZM26.884 30.3452C28.3507 30.0067 29.7503 29.4192 31.0237 28.6078C31.4925 28.3088 31.825 27.8333 31.9479 27.2859C32.0708 26.7385 31.9742 26.164 31.6793 25.6888C31.5334 25.4532 31.3431 25.2492 31.1194 25.0882C30.8956 24.9273 30.6428 24.8126 30.3753 24.7508C30.1078 24.689 29.8309 24.6813 29.5605 24.728C29.29 24.7748 29.0313 24.8751 28.7991 25.0233C25.8784 26.8845 22.1192 26.8832 19.2008 25.0233C18.9687 24.8751 18.71 24.7747 18.4396 24.7279C18.1691 24.6812 17.8923 24.6889 17.6248 24.7507C17.3573 24.8125 17.1045 24.9272 16.8808 25.0882C16.657 25.2491 16.4668 25.4532 16.321 25.6888C16.026 26.1639 15.9292 26.7383 16.0519 27.2857C16.1747 27.8331 16.5069 28.3086 16.9755 28.6078C18.2489 29.4189 19.6482 30.0063 21.1145 30.3452L17.1291 34.3856C16.7375 34.7828 16.5175 35.3213 16.5176 35.8829C16.5177 36.4444 16.7378 36.9829 17.1296 37.3799C17.5214 37.7769 18.0528 37.9998 18.6067 37.9997C19.1607 37.9996 19.692 37.7765 20.0836 37.3794L23.9991 33.4099L27.917 37.3797C28.1107 37.5763 28.3408 37.7323 28.594 37.8388C28.8473 37.9452 29.1187 38 29.3929 38C29.667 38 29.9385 37.9452 30.1918 37.8388C30.445 37.7323 30.6751 37.5763 30.8688 37.3797C31.0631 37.1834 31.2172 36.9501 31.3224 36.6933C31.4276 36.4364 31.4817 36.1611 31.4817 35.883C31.4817 35.6049 31.4276 35.3296 31.3224 35.0728C31.2172 34.8159 31.0631 34.5827 30.8688 34.3863L26.884 30.3452Z" fill="white"/>
</svg>
