<svg width="48" height="48" viewBox="0 0 48 48" fill="none" xmlns="http://www.w3.org/2000/svg">
<rect width="48" height="48" rx="24" fill="#419FD9"/>
<path fill-rule="evenodd" clip-rule="evenodd" d="M28.2574 34.1182C29.6856 34.743 30.2212 33.4338 30.2212 33.4338L34 14.4505C33.9702 13.1711 32.2445 13.9447 32.2445 13.9447L11.0891 22.2462C11.0891 22.2462 10.0774 22.6032 10.1667 23.2281C10.256 23.8529 11.0593 24.1504 11.0593 24.1504L16.3854 25.9357C16.3854 25.9357 17.9921 31.2022 18.3194 32.2139C18.617 33.1958 18.8848 33.2255 18.8848 33.2255C19.1823 33.3446 19.4501 33.1363 19.4501 33.1363L22.9016 30.0121L28.2574 34.1182ZM29.1796 17.8128C29.1796 17.8128 29.9235 17.3664 29.8937 17.8128C29.8937 17.8128 30.0127 17.8723 29.6259 18.2888C29.2689 18.6459 20.8484 26.2035 19.7177 27.2152C19.6284 27.2747 19.5689 27.3639 19.5689 27.4829L19.2416 30.2799C19.1821 30.5774 18.7953 30.6072 18.706 30.3394L17.3076 25.7572C17.2481 25.5787 17.3076 25.3704 17.4861 25.2514L29.1796 17.8128Z" fill="white"/>
</svg>
