<svg width="48" height="48" viewBox="0 0 48 48" fill="none" xmlns="http://www.w3.org/2000/svg">
<rect width="48" height="48" rx="24" fill="#1DA1F2"/>
<path d="M33.6819 19.7424C33.6819 19.9565 33.6819 20.1707 33.6819 20.3543C33.6819 26.6876 28.9254 34 20.2552 34C17.5759 34 15.1073 33.2045 13 31.8583C13.3613 31.8889 13.7526 31.9195 14.1139 31.9195C16.3115 31.9195 18.3586 31.1546 19.9843 29.8696C17.9071 29.839 16.161 28.4316 15.589 26.5346C15.8901 26.5958 16.161 26.6264 16.4921 26.6264C16.9136 26.6264 17.3351 26.5652 17.7264 26.4428C15.5589 26.0145 13.9332 24.087 13.9332 21.7617C13.9332 21.7311 13.9332 21.7311 13.9332 21.7005C14.5654 22.0676 15.288 22.2818 16.0707 22.3124C14.8063 21.4557 13.9634 19.9871 13.9634 18.3043C13.9634 17.4171 14.2042 16.591 14.5955 15.8873C16.9136 18.7939 20.4058 20.6908 24.3194 20.905C24.2291 20.5684 24.199 20.1707 24.199 19.8035C24.199 17.1417 26.3063 15 28.9254 15C30.2801 15 31.5144 15.5813 32.3573 16.4992C33.4411 16.285 34.4346 15.8873 35.3678 15.3366C35.0065 16.4686 34.2539 17.3865 33.2906 17.9984C34.2539 17.876 35.1571 17.6312 36 17.2335C35.3979 18.2126 34.6152 19.0692 33.6819 19.7424Z" fill="white"/>
</svg>
