<svg width="48" height="48" viewBox="0 0 48 48" fill="none" xmlns="http://www.w3.org/2000/svg">
<path fill-rule="evenodd" clip-rule="evenodd" d="M23.9995 3C12.4018 3 3 12.4018 3 23.9995C3 30.1218 5.61994 35.6321 9.7998 39.4705V39.3983C9.7998 37.8056 10.7484 36.4088 12.1783 35.4558C13.6075 34.5032 15.4875 33.9996 17.3996 33.9996H30.5993C32.5115 33.9996 34.3914 34.5032 35.8207 35.4558C37.2505 36.4088 38.1992 37.8056 38.1992 39.3983V39.4705C42.379 35.6321 44.9989 30.1217 44.9989 23.9995C44.9989 12.4018 35.5972 3 23.9995 3ZM23.9995 44.999C19.45 44.999 15.2385 43.5523 11.7998 41.0938V39.3983C11.7998 38.6579 12.2418 37.8169 13.2875 37.1201C14.3336 36.4228 15.811 35.9996 17.3996 35.9996H30.5993C32.188 35.9996 33.6654 36.4228 34.7115 37.1201C35.7571 37.8169 36.1992 38.6579 36.1992 39.3983V41.0938C32.7605 43.5522 28.5489 44.999 23.9995 44.999ZM1 23.9995C1 11.2972 11.2972 1 23.9995 1C36.7017 1 46.9989 11.2972 46.9989 23.9995C46.9989 36.7018 36.7017 46.999 23.9995 46.999C11.2972 46.999 1 36.7018 1 23.9995ZM16.2002 17.4C16.2002 13.0923 19.6923 9.60021 24 9.60021C28.3077 9.60021 31.7998 13.0923 31.7998 17.4C31.7998 21.7077 28.3077 25.1998 24 25.1998C19.6923 25.1998 16.2002 21.7077 16.2002 17.4ZM24 7.60021C18.5877 7.60021 14.2002 11.9877 14.2002 17.4C14.2002 22.8123 18.5877 27.1998 24 27.1998C29.4123 27.1998 33.7998 22.8123 33.7998 17.4C33.7998 11.9877 29.4123 7.60021 24 7.60021Z" fill="black" fill-opacity="0.5"/>
</svg>
