<svg width="48" height="48" viewBox="0 0 48 48" fill="none" xmlns="http://www.w3.org/2000/svg">
<rect width="48" height="48" rx="24" fill="#5181B8"/>
<path fill-rule="evenodd" clip-rule="evenodd" d="M36.4035 18.0834C36.5843 17.4589 36.4035 17 35.5432 17H32.6988C31.9755 17 31.6423 17.3964 31.4615 17.8337C31.4615 17.8337 30.0149 21.4869 27.9657 23.86C27.3028 24.5469 27.0015 24.7653 26.6398 24.7653C26.459 24.7653 26.1973 24.5469 26.1973 23.9225V18.0834C26.1973 17.3339 25.9874 17 25.3846 17H20.9148C20.463 17 20.1911 17.3478 20.1911 17.6775C20.1911 18.388 21.2155 18.5518 21.3212 20.5501V24.8905C21.3212 25.8421 21.1554 26.0147 20.7937 26.0147C19.8295 26.0147 17.484 22.3448 16.0927 18.1459C15.8201 17.3297 15.5466 17 14.8196 17H11.9752C11.1625 17 11 17.3964 11 17.8337C11 18.6143 11.9645 22.4863 15.4901 27.6072C17.8408 31.104 21.1521 33 24.1656 33C25.9738 33 26.1973 32.5789 26.1973 31.8537V29.2105C26.1973 28.3684 26.3686 28.2004 26.9409 28.2004C27.3631 28.2004 28.0862 28.4189 29.7739 30.1051C31.7025 32.1032 32.0202 33 33.1052 33H35.9496C36.7623 33 37.1686 32.5789 36.9341 31.748C36.6777 30.9198 35.757 29.7185 34.5351 28.2941C33.8721 27.4821 32.8776 26.6078 32.5765 26.1707C32.1545 25.6086 32.275 25.3589 32.5765 24.8596C32.5765 24.8596 36.0418 19.8011 36.4035 18.0836V18.0834Z" fill="white"/>
</svg>
