<svg width="33" height="33" viewBox="0 0 33 33" fill="none" xmlns="http://www.w3.org/2000/svg">
<rect x="0.5" width="32" height="32" rx="16" fill="#0DC143"/>
<path d="M22.6641 9.86274C21.0583 8.2231 18.8385 7.33301 16.5715 7.33301C11.7541 7.33301 7.88121 11.2213 7.92844 15.9528C7.92844 17.4519 8.35351 18.9042 9.06196 20.2159L7.83398 24.6663L12.4153 23.4952C13.6905 24.1979 15.1074 24.5258 16.5243 24.5258C21.2945 24.5258 25.1673 20.6375 25.1673 15.906C25.1673 13.6105 24.27 11.4555 22.6641 9.86274ZM16.5715 23.0735C15.2963 23.0735 14.0211 22.7456 12.9348 22.0898L12.6514 21.9492L9.9121 22.6519L10.6205 19.9817L10.4316 19.7006C8.35351 16.3744 9.34534 11.9708 12.7459 9.90958C16.1464 7.84832 20.5388 8.83211 22.6169 12.2051C24.695 15.5781 23.7032 19.9348 20.3026 21.9961C19.2164 22.6988 17.8939 23.0735 16.5715 23.0735ZM20.7277 17.8735L20.2082 17.6393C20.2082 17.6393 19.4525 17.3114 18.9802 17.0772C18.933 17.0772 18.8858 17.0303 18.8385 17.0303C18.6968 17.0303 18.6024 17.0772 18.5079 17.124C18.5079 17.124 18.4607 17.1708 17.7995 17.9204C17.7522 18.0141 17.6578 18.0609 17.5633 18.0609H17.5161C17.4689 18.0609 17.3744 18.0141 17.3272 17.9672L17.091 17.8735C16.5715 17.6393 16.0992 17.3582 15.7214 16.9835C15.6269 16.8898 15.4852 16.7961 15.3908 16.7024C15.0601 16.3744 14.7295 15.9997 14.4934 15.5781L14.4462 15.4844C14.3989 15.4375 14.3989 15.3907 14.3517 15.297C14.3517 15.2033 14.3517 15.1096 14.3989 15.0627C14.3989 15.0627 14.5878 14.8285 14.7295 14.688C14.824 14.5943 14.8712 14.4537 14.9657 14.36C15.0601 14.2195 15.1074 14.0321 15.0601 13.8916C15.0129 13.6573 14.4462 12.3925 14.3045 12.1114C14.21 11.9708 14.1155 11.924 13.9739 11.8772H13.8322C13.7377 11.8772 13.596 11.8772 13.4543 11.8772C13.3599 11.8772 13.2654 11.924 13.171 11.924L13.1237 11.9708C13.0293 12.0177 12.9348 12.1114 12.8403 12.1582C12.7459 12.2519 12.6987 12.3456 12.6042 12.4393C12.2736 12.8609 12.0847 13.3763 12.0847 13.8916C12.0847 14.2663 12.1791 14.6411 12.3208 14.969L12.368 15.1096C12.7931 15.9997 13.3599 16.7961 14.1155 17.4988L14.3045 17.6862C14.4462 17.8267 14.5878 17.9204 14.6823 18.0609C15.6741 18.9042 16.8076 19.5132 18.0828 19.8411C18.2245 19.888 18.4135 19.888 18.5551 19.9348C18.6968 19.9348 18.8858 19.9348 19.0274 19.9348C19.2636 19.9348 19.547 19.8411 19.7359 19.7474C19.8776 19.6537 19.972 19.6537 20.0665 19.56L20.161 19.4663C20.2554 19.3726 20.3499 19.3258 20.4443 19.2321C20.5388 19.1384 20.6333 19.0447 20.6805 18.951C20.7749 18.7636 20.8222 18.5294 20.8694 18.2952C20.8694 18.2015 20.8694 18.0609 20.8694 17.9672C20.8694 17.9672 20.8222 17.9204 20.7277 17.8735Z" fill="white"/>
</svg>
