<svg width="33" height="25" viewBox="0 0 33 25" fill="none" xmlns="http://www.w3.org/2000/svg">
<g clip-path="url(#clip0_5925:35256)">
<path d="M20.3958 5.72806C20.3958 5.16827 19.9395 4.71458 19.3766 4.71458C18.8138 4.71458 18.3574 5.16827 18.3574 5.72806C18.3574 6.28773 18.8137 6.74154 19.3766 6.74154C19.9395 6.74154 20.3958 6.28785 20.3958 5.72806ZM32.1413 5.72806C32.141 5.16827 31.6849 4.71458 31.122 4.71458C30.5591 4.71458 30.1028 5.16827 30.1028 5.72806C30.1028 6.28773 30.5591 6.74154 31.122 6.74154C31.6849 6.74154 32.1412 6.28785 32.1413 5.72806ZM24.3429 5.72806C24.3426 5.16827 23.8864 4.71458 23.3235 4.71458C22.7605 4.71458 22.3043 5.16827 22.3042 5.72806C22.3044 6.28773 22.7605 6.74154 23.3235 6.74154C23.8864 6.74154 24.3426 6.28785 24.3429 5.72806ZM27.2226 0.836834C26.6598 0.837072 26.2034 1.29064 26.2034 1.85043C26.2034 2.41022 26.6597 2.86391 27.2226 2.86391C27.7855 2.86391 28.2418 2.41022 28.2418 1.85043C28.2418 1.29064 27.7855 0.836953 27.2226 0.836834ZM27.2226 8.59173C26.6598 8.59197 26.2034 9.04566 26.2034 9.60545C26.2034 10.1652 26.6597 10.6189 27.2226 10.619C27.7855 10.6188 28.2418 10.1652 28.2418 9.60545C28.2418 9.04566 27.7855 8.59197 27.2226 8.59173ZM27.2226 0C30.4039 0 32.9828 2.56463 32.9828 5.72806C32.9828 8.68618 30.7275 11.1206 27.8335 11.424L27.8346 11.4245L24.9284 16.1474L29.6119 24.2468C29.8334 24.6299 29.5556 25.1082 29.1115 25.1082H23.7989C23.5852 25.1082 23.389 24.9907 23.2889 24.8027L20.0975 18.8107H18.4457V24.5335C18.4457 24.8509 18.1872 25.1082 17.8684 25.1082H13.1155C12.7966 25.1082 12.5381 24.8509 12.5381 24.5335V19.0559L6.44646 21.3762V11.4164L12.5381 13.7367V10.6554H12.5391C10.8495 9.65708 9.717 7.82425 9.717 5.72818C9.717 2.56462 12.296 0.000118953 15.4772 0.000118953C18.6584 0.000118953 21.2373 2.56474 21.2373 5.72818C21.2373 7.812 20.1181 9.63566 18.445 10.638H18.4456V14.181H20.2478L22.9164 9.53253L22.9171 9.53289C22.0123 8.52119 21.4624 7.18868 21.4624 5.7283C21.4624 2.56474 24.0415 0 27.2226 0ZM27.2226 4.71458C26.6598 4.71458 26.2034 5.16827 26.2034 5.72806C26.2034 6.28773 26.6597 6.74154 27.2226 6.74154C27.7855 6.74154 28.2418 6.28785 28.2418 5.72806C28.2418 5.16827 27.7855 4.71458 27.2226 4.71458ZM12.5973 5.72806C12.5973 5.16827 12.141 4.71458 11.5781 4.71458C11.0151 4.71458 10.5589 5.16827 10.5589 5.72806C10.5589 6.28773 11.0151 6.74154 11.5781 6.74154C12.141 6.74154 12.5973 6.28785 12.5973 5.72806ZM15.4773 0.837072C14.9144 0.837072 14.4582 1.29076 14.4582 1.85055C14.4582 2.41034 14.9144 2.86403 15.4773 2.86403C16.0403 2.86403 16.4965 2.41034 16.4965 1.85055C16.4965 1.29076 16.0403 0.837072 15.4773 0.837072ZM15.4773 8.59197C14.9144 8.59197 14.4582 9.04566 14.4582 9.60545C14.4582 10.1652 14.9144 10.6189 15.4773 10.6189C16.0403 10.6189 16.4965 10.1652 16.4965 9.60545C16.4965 9.04566 16.0403 8.59197 15.4773 8.59197ZM15.4773 4.71446C14.9144 4.71446 14.4582 5.16815 14.4582 5.72794C14.4582 6.28761 14.9144 6.74142 15.4773 6.74142C16.0403 6.74142 16.4965 6.28773 16.4965 5.72794C16.4965 5.16815 16.0403 4.71446 15.4773 4.71446ZM0 10.5864C0 10.269 0.258475 10.0117 0.57732 10.0117H4.81385C5.1327 10.0117 5.39117 10.269 5.39117 10.5864V22.0152C5.39117 22.3326 5.1327 22.5899 4.81385 22.5899H0.577319C0.258474 22.5899 0 22.3326 0 22.0152V10.5864Z" fill="currentColor"/>
</g>
<defs>
<clipPath id="clip0_5925:35256">
<rect width="33" height="25" fill="white"/>
</clipPath>
</defs>
</svg>
