<svg width="43" height="48" viewBox="0 0 43 48" fill="none" xmlns="http://www.w3.org/2000/svg">
<path d="M0 18.3492V41.1626C0 44.6625 2.81733 47.4997 6.29268 47.4997H36.7073C40.1827 47.4997 43 44.6625 43 41.1626V18.3492C43 16.2323 41.9504 14.2552 40.2024 13.0795L24.9951 2.85056C22.8793 1.42742 20.1207 1.42742 18.0049 2.85056L2.7976 13.0795C1.0496 14.2552 0 16.2323 0 18.3492Z" fill="white"/>
<g clip-path="url(#clip0_5883:37805)">
<path d="M25.9594 19.5225C25.9594 18.9279 25.4843 18.446 24.8981 18.446C24.312 18.446 23.8367 18.9279 23.8367 19.5225C23.8367 20.117 24.3118 20.599 24.8981 20.599C25.4843 20.599 25.9594 20.1171 25.9594 19.5225ZM38.1909 19.5225C38.1907 18.9279 37.7157 18.446 37.1295 18.446C36.5432 18.446 36.0681 18.9279 36.0681 19.5225C36.0681 20.117 36.5432 20.599 37.1295 20.599C37.7157 20.599 38.1908 20.1171 38.1909 19.5225ZM30.0698 19.5225C30.0696 18.9279 29.5945 18.446 29.0083 18.446C28.422 18.446 27.9469 18.9279 27.9468 19.5225C27.947 20.117 28.422 20.599 29.0083 20.599C29.5945 20.599 30.0696 20.1171 30.0698 19.5225ZM33.0687 14.3273C32.4826 14.3276 32.0074 14.8093 32.0074 15.4039C32.0074 15.9985 32.4825 16.4804 33.0687 16.4804C33.655 16.4804 34.1301 15.9985 34.1301 15.4039C34.1301 14.8093 33.655 14.3274 33.0687 14.3273ZM33.0687 22.5641C32.4826 22.5644 32.0074 23.0463 32.0074 23.6408C32.0074 24.2354 32.4825 24.7173 33.0687 24.7174C33.655 24.7172 34.1301 24.2354 34.1301 23.6408C34.1301 23.0463 33.655 22.5644 33.0687 22.5641ZM33.0687 13.4385C36.3817 13.4385 39.0673 16.1625 39.0673 19.5225C39.0673 22.6644 36.7186 25.2501 33.7049 25.5724L33.706 25.5729L30.6796 30.5893L35.5569 39.1921C35.7876 39.599 35.4983 40.107 35.0358 40.107H29.5034C29.2808 40.107 29.0765 39.9822 28.9722 39.7825L25.6489 33.4182H23.9287V39.4966C23.9287 39.8337 23.6595 40.107 23.3275 40.107H18.3779C18.0458 40.107 17.7767 39.8337 17.7767 39.4966V33.6786L11.4329 36.1431V25.5643L17.7767 28.0288V24.7561H17.7777C16.0181 23.6957 14.8388 21.7489 14.8388 19.5226C14.8388 16.1625 17.5245 13.4386 20.8373 13.4386C24.1502 13.4386 26.8358 16.1626 26.8358 19.5226C26.8358 21.7359 25.6703 23.6729 23.9279 24.7375H23.9285V28.5007H25.8053L28.5843 23.5634L28.5851 23.5638C27.6428 22.4892 27.0702 21.0739 27.0702 19.5227C27.0702 16.1626 29.7561 13.4385 33.0687 13.4385ZM33.0687 18.446C32.4826 18.446 32.0074 18.9279 32.0074 19.5225C32.0074 20.117 32.4825 20.599 33.0687 20.599C33.655 20.599 34.1301 20.1171 34.1301 19.5225C34.1301 18.9279 33.655 18.446 33.0687 18.446ZM17.8383 19.5225C17.8383 18.9279 17.3631 18.446 16.7769 18.446C16.1906 18.446 15.7155 18.9279 15.7155 19.5225C15.7155 20.117 16.1906 20.599 16.7769 20.599C17.3631 20.599 17.8383 20.1171 17.8383 19.5225ZM20.8375 14.3276C20.2512 14.3276 19.7761 14.8094 19.7761 15.404C19.7761 15.9986 20.2512 16.4805 20.8375 16.4805C21.4237 16.4805 21.8988 15.9986 21.8988 15.404C21.8988 14.8094 21.4237 14.3276 20.8375 14.3276ZM20.8375 22.5644C20.2512 22.5644 19.7761 23.0463 19.7761 23.6408C19.7761 24.2354 20.2512 24.7173 20.8375 24.7173C21.4237 24.7173 21.8988 24.2354 21.8988 23.6408C21.8988 23.0463 21.4237 22.5644 20.8375 22.5644ZM20.8375 18.4459C20.2512 18.4459 19.7761 18.9278 19.7761 19.5224C19.7761 20.1168 20.2512 20.5988 20.8375 20.5988C21.4237 20.5988 21.8988 20.117 21.8988 19.5224C21.8988 18.9278 21.4237 18.4459 20.8375 18.4459ZM4.71973 24.6827C4.71973 24.3456 4.9889 24.0723 5.32093 24.0723H9.73276C10.0648 24.0723 10.334 24.3456 10.334 24.6827V36.8217C10.334 37.1589 10.0648 37.4322 9.73276 37.4322H5.32093C4.9889 37.4322 4.71973 37.1589 4.71973 36.8217V24.6827Z" fill="#00CAD7"/>
</g>
<defs>
<clipPath id="clip0_5883:37805">
<rect width="34.4293" height="26.5141" fill="white" transform="translate(4.63818 13.4385)"/>
</clipPath>
</defs>
</svg>
