<svg width="167" height="128" viewBox="0 0 167 128" fill="none" xmlns="http://www.w3.org/2000/svg">
<path d="M103.269 29.0026C103.269 26.1682 100.959 23.8711 98.1084 23.8711C95.2587 23.8711 92.9481 26.1682 92.9481 29.0026C92.9481 31.8363 95.2581 34.1341 98.1084 34.1341C100.959 34.1341 103.269 31.8369 103.269 29.0026ZM162.739 29.0026C162.738 26.1682 160.429 23.8711 157.578 23.8711C154.728 23.8711 152.418 26.1682 152.418 29.0026C152.418 31.8363 154.728 34.1341 157.578 34.1341C160.429 34.1341 162.739 31.8369 162.739 29.0026ZM123.254 29.0026C123.253 26.1682 120.943 23.8711 118.092 23.8711C115.242 23.8711 112.932 26.1682 112.931 29.0026C112.933 31.8363 115.242 34.1341 118.092 34.1341C120.943 34.1341 123.253 31.8369 123.254 29.0026ZM137.835 4.23709C134.985 4.2383 132.674 6.53482 132.674 9.36919C132.674 12.2036 134.984 14.5007 137.835 14.5007C140.685 14.5007 142.995 12.2036 142.995 9.36919C142.995 6.53482 140.685 4.2377 137.835 4.23709ZM137.835 43.502C134.985 43.5032 132.674 45.8004 132.674 48.6347C132.674 51.4691 134.984 53.7662 137.835 53.7668C140.685 53.7656 142.995 51.4691 142.995 48.6347C142.995 45.8004 140.685 43.5032 137.835 43.502ZM137.835 0C153.942 0 167 12.9853 167 29.0026C167 43.9803 155.581 56.3061 140.928 57.8425L140.933 57.8449L126.219 81.7581L149.932 122.767C151.054 124.707 149.647 127.129 147.399 127.129H120.5C119.418 127.129 118.424 126.534 117.917 125.582L101.759 95.2434H93.3951V124.219C93.3951 125.826 92.0864 127.129 90.472 127.129H66.4067C64.7923 127.129 63.4836 125.826 63.4836 124.219V96.4847L32.64 108.233V57.804L63.4836 69.5522V53.9511H63.4885C54.9334 48.8961 49.1996 39.6161 49.1996 29.0032C49.1996 12.9853 62.2577 0.000602288 78.3648 0.000602288C94.472 0.000602288 107.53 12.9859 107.53 29.0032C107.53 39.554 101.863 48.7877 93.3914 53.8626H93.3945V71.8017H102.519L116.031 48.2655L116.035 48.2673C111.454 43.1449 108.669 36.3981 108.669 29.0038C108.669 12.9859 121.728 0 137.835 0ZM137.835 23.8711C134.985 23.8711 132.674 26.1682 132.674 29.0026C132.674 31.8363 134.984 34.1341 137.835 34.1341C140.685 34.1341 142.995 31.8369 142.995 29.0026C142.995 26.1682 140.685 23.8711 137.835 23.8711ZM63.7834 29.0026C63.7834 26.1682 61.4728 23.8711 58.6225 23.8711C55.7723 23.8711 53.4622 26.1682 53.4622 29.0026C53.4622 31.8363 55.7723 34.1341 58.6225 34.1341C61.4728 34.1341 63.7834 31.8369 63.7834 29.0026ZM78.3655 4.2383C75.5152 4.2383 73.2052 6.53542 73.2052 9.36979C73.2052 12.2042 75.5152 14.5013 78.3655 14.5013C81.2157 14.5013 83.5257 12.2042 83.5257 9.36979C83.5257 6.53542 81.2157 4.2383 78.3655 4.2383ZM78.3655 43.5032C75.5152 43.5032 73.2052 45.8004 73.2052 48.6347C73.2052 51.4691 75.5152 53.7662 78.3655 53.7662C81.2157 53.7662 83.5257 51.4691 83.5257 48.6347C83.5257 45.8004 81.2157 43.5032 78.3655 43.5032ZM78.3655 23.8705C75.5152 23.8705 73.2052 26.1676 73.2052 29.002C73.2052 31.8357 75.5152 34.1334 78.3655 34.1334C81.2157 34.1334 83.5257 31.8363 83.5257 29.002C83.5257 26.1676 81.2157 23.8705 78.3655 23.8705ZM0 53.6015C0 51.9944 1.30872 50.6915 2.92311 50.6915H24.3737C25.9881 50.6915 27.2968 51.9944 27.2968 53.6015V111.468C27.2968 113.075 25.9881 114.378 24.3737 114.378H2.92311C1.30872 114.378 0 113.075 0 111.468V53.6015Z" fill="#D9D9D9"/>
</svg>
