<svg width="140" height="25" viewBox="0 0 140 25" fill="none" xmlns="http://www.w3.org/2000/svg">
<g clip-path="url(#clip0_6301:23085)">
<path d="M20.3958 5.72806C20.3958 5.16827 19.9395 4.71458 19.3766 4.71458C18.8138 4.71458 18.3574 5.16827 18.3574 5.72806C18.3574 6.28773 18.8137 6.74154 19.3766 6.74154C19.9395 6.74154 20.3958 6.28785 20.3958 5.72806ZM32.1413 5.72806C32.141 5.16827 31.6849 4.71458 31.122 4.71458C30.5591 4.71458 30.1028 5.16827 30.1028 5.72806C30.1028 6.28773 30.5591 6.74154 31.122 6.74154C31.6849 6.74154 32.1412 6.28785 32.1413 5.72806ZM24.3429 5.72806C24.3426 5.16827 23.8864 4.71458 23.3235 4.71458C22.7605 4.71458 22.3043 5.16827 22.3042 5.72806C22.3044 6.28773 22.7605 6.74154 23.3235 6.74154C23.8864 6.74154 24.3426 6.28785 24.3429 5.72806ZM27.2226 0.836834C26.6598 0.837072 26.2034 1.29064 26.2034 1.85043C26.2034 2.41022 26.6597 2.86391 27.2226 2.86391C27.7855 2.86391 28.2418 2.41022 28.2418 1.85043C28.2418 1.29064 27.7855 0.836953 27.2226 0.836834ZM27.2226 8.59173C26.6598 8.59197 26.2034 9.04566 26.2034 9.60545C26.2034 10.1652 26.6597 10.6189 27.2226 10.619C27.7855 10.6188 28.2418 10.1652 28.2418 9.60545C28.2418 9.04566 27.7855 8.59197 27.2226 8.59173ZM27.2226 0C30.4039 0 32.9828 2.56463 32.9828 5.72806C32.9828 8.68618 30.7275 11.1206 27.8335 11.424L27.8346 11.4245L24.9284 16.1474L29.6119 24.2468C29.8334 24.6299 29.5556 25.1082 29.1115 25.1082H23.7989C23.5852 25.1082 23.389 24.9907 23.2889 24.8027L20.0975 18.8107H18.4457V24.5335C18.4457 24.8509 18.1872 25.1082 17.8684 25.1082H13.1155C12.7966 25.1082 12.5381 24.8509 12.5381 24.5335V19.0559L6.44646 21.3762V11.4164L12.5381 13.7367V10.6554H12.5391C10.8495 9.65708 9.717 7.82425 9.717 5.72818C9.717 2.56462 12.296 0.000118953 15.4772 0.000118953C18.6584 0.000118953 21.2373 2.56474 21.2373 5.72818C21.2373 7.812 20.1181 9.63566 18.445 10.638H18.4456V14.181H20.2478L22.9164 9.53253L22.9171 9.53289C22.0123 8.52119 21.4624 7.18868 21.4624 5.7283C21.4624 2.56474 24.0415 0 27.2226 0ZM27.2226 4.71458C26.6598 4.71458 26.2034 5.16827 26.2034 5.72806C26.2034 6.28773 26.6597 6.74154 27.2226 6.74154C27.7855 6.74154 28.2418 6.28785 28.2418 5.72806C28.2418 5.16827 27.7855 4.71458 27.2226 4.71458ZM12.5973 5.72806C12.5973 5.16827 12.141 4.71458 11.5781 4.71458C11.0151 4.71458 10.5589 5.16827 10.5589 5.72806C10.5589 6.28773 11.0151 6.74154 11.5781 6.74154C12.141 6.74154 12.5973 6.28785 12.5973 5.72806ZM15.4773 0.837072C14.9144 0.837072 14.4582 1.29076 14.4582 1.85055C14.4582 2.41034 14.9144 2.86403 15.4773 2.86403C16.0403 2.86403 16.4965 2.41034 16.4965 1.85055C16.4965 1.29076 16.0403 0.837072 15.4773 0.837072ZM15.4773 8.59197C14.9144 8.59197 14.4582 9.04566 14.4582 9.60545C14.4582 10.1652 14.9144 10.6189 15.4773 10.6189C16.0403 10.6189 16.4965 10.1652 16.4965 9.60545C16.4965 9.04566 16.0403 8.59197 15.4773 8.59197ZM15.4773 4.71446C14.9144 4.71446 14.4582 5.16815 14.4582 5.72794C14.4582 6.28761 14.9144 6.74142 15.4773 6.74142C16.0403 6.74142 16.4965 6.28773 16.4965 5.72794C16.4965 5.16815 16.0403 4.71446 15.4773 4.71446ZM0 10.5864C0 10.269 0.258475 10.0117 0.57732 10.0117H4.81385C5.1327 10.0117 5.39117 10.269 5.39117 10.5864V22.0152C5.39117 22.3326 5.1327 22.5899 4.81385 22.5899H0.577319C0.258474 22.5899 0 22.3326 0 22.0152V10.5864Z" fill="#00CAD7"/>
<path d="M48.4706 16.1267L52.0819 22.5543H47.4413L45.1036 18.0371H43.9522V22.5543H39.835V10.0562H43.9522V14.7162H45.2083L47.8077 10.0562H52.0993L48.4706 16.1267Z" fill="#00CAD7"/>
<path d="M52.9388 10.0562H56.9862V16.5552L61.1906 10.0562H65.0636V22.5543H61.0162V16.0731L56.8292 22.5543H52.9388V10.0562Z" fill="#00CAD7"/>
<path d="M79.2703 10.0562V22.5543H75.1531V17.9479H71.3499V22.5543H67.2327V10.0562H71.3499V14.4841H75.1531V10.0562H79.2703Z" fill="#00CAD7"/>
<path d="M87.6521 22.84C86.3379 22.84 85.1574 22.5603 84.1107 22.0008C83.0639 21.4414 82.244 20.6677 81.6508 19.6798C81.0576 18.6799 80.7611 17.5551 80.7611 16.3053C80.7611 15.0554 81.0576 13.9366 81.6508 12.9486C82.244 11.9488 83.0639 11.1691 84.1107 10.6097C85.1574 10.0502 86.3379 9.77051 87.6521 9.77051C88.9664 9.77051 90.1469 10.0502 91.1936 10.6097C92.2404 11.1691 93.0603 11.9488 93.6535 12.9486C94.2466 13.9366 94.5432 15.0554 94.5432 16.3053C94.5432 17.5551 94.2466 18.6799 93.6535 19.6798C93.0603 20.6677 92.2404 21.4414 91.1936 22.0008C90.1469 22.5603 88.9664 22.84 87.6521 22.84ZM87.6521 19.4298C88.1639 19.4298 88.6233 19.3048 89.0304 19.0548C89.4491 18.793 89.7805 18.4299 90.0248 17.9657C90.269 17.4896 90.3911 16.9361 90.3911 16.3053C90.3911 15.6744 90.269 15.1269 90.0248 14.6626C89.7805 14.1865 89.4491 13.8235 89.0304 13.5735C88.6233 13.3116 88.1639 13.1807 87.6521 13.1807C87.1404 13.1807 86.6752 13.3116 86.2565 13.5735C85.8494 13.8235 85.5238 14.1865 85.2795 14.6626C85.0353 15.1269 84.9132 15.6744 84.9132 16.3053C84.9132 16.9361 85.0353 17.4896 85.2795 17.9657C85.5238 18.4299 85.8494 18.793 86.2565 19.0548C86.6752 19.3048 87.1404 19.4298 87.6521 19.4298Z" fill="#00CAD7"/>
<path d="M109.379 19.287V25.0004H105.611V22.5543H98.6675V25.0004H94.8992V19.287H95.2481C95.9576 19.287 96.4577 18.8287 96.7485 17.9122C97.0392 16.9956 97.2253 15.6446 97.3067 13.8592L97.4463 10.0562H107.774V19.287H109.379ZM100.883 14.2163C100.837 15.4185 100.744 16.4421 100.604 17.2873C100.464 18.1205 100.249 18.787 99.9585 19.287H103.727V13.3236H100.918L100.883 14.2163Z" fill="#00CAD7"/>
<path d="M116.973 22.84C115.658 22.84 114.478 22.5603 113.431 22.0008C112.384 21.4414 111.564 20.6677 110.971 19.6798C110.378 18.6799 110.082 17.5551 110.082 16.3053C110.082 15.0554 110.378 13.9366 110.971 12.9486C111.564 11.9488 112.384 11.1691 113.431 10.6097C114.478 10.0502 115.658 9.77051 116.973 9.77051C118.287 9.77051 119.467 10.0502 120.514 10.6097C121.561 11.1691 122.381 11.9488 122.974 12.9486C123.567 13.9366 123.864 15.0554 123.864 16.3053C123.864 17.5551 123.567 18.6799 122.974 19.6798C122.381 20.6677 121.561 21.4414 120.514 22.0008C119.467 22.5603 118.287 22.84 116.973 22.84ZM116.973 19.4298C117.484 19.4298 117.944 19.3048 118.351 19.0548C118.77 18.793 119.101 18.4299 119.345 17.9657C119.589 17.4896 119.712 16.9361 119.712 16.3053C119.712 15.6744 119.589 15.1269 119.345 14.6626C119.101 14.1865 118.77 13.8235 118.351 13.5735C117.944 13.3116 117.484 13.1807 116.973 13.1807C116.461 13.1807 115.996 13.3116 115.577 13.5735C115.17 13.8235 114.844 14.1865 114.6 14.6626C114.356 15.1269 114.234 15.6744 114.234 16.3053C114.234 16.9361 114.356 17.4896 114.6 17.9657C114.844 18.4299 115.17 18.793 115.577 19.0548C115.996 19.3048 116.461 19.4298 116.973 19.4298Z" fill="#00CAD7"/>
<path d="M136.249 22.5543L136.214 16.8587L133.562 21.4295H131.748L129.096 17.0551V22.5543H125.345V10.0562H128.73L132.708 16.7159L136.581 10.0562H139.965L140 22.5543H136.249Z" fill="#00CAD7"/>
</g>
<defs>
<clipPath id="clip0_6301:23085">
<rect width="140" height="25" fill="white"/>
</clipPath>
</defs>
</svg>
