<svg width="305" height="291" viewBox="0 0 305 291" fill="none" xmlns="http://www.w3.org/2000/svg">
<path d="M67.1961 289.347C71.4371 289.504 77.2761 289.496 83.0851 289.373C93.5907 289.146 103.902 288.541 104.044 287.843C105.474 287.592 104.936 237.913 103.801 234.755C102.558 231.309 89.8873 233.078 86.1913 233.078C81.6814 233.078 74.9913 232.847 70.4515 233.198C66.7966 233.478 63.4851 234.273 63.2611 238.376C62.5966 250.576 63.1977 270.109 63.2201 283.986C63.2238 287.477 63.0745 289.187 67.1961 289.347Z" fill="white"/>
<path d="M52.7853 147.775C59.453 144.281 58.3554 138.442 63.1117 133.215L48.5928 142.549C45.7256 146.439 49.0706 149.724 52.7853 147.775Z" fill="white"/>
<path d="M46.2706 132.872L56.7986 103.005L63.5634 133.387L75.973 131.114C73.2058 137.46 70.8781 143.989 69.0066 150.654C66.0535 161.186 59.7629 201.394 62.5741 208.778L65.2807 208.801C64.3063 210.234 41.3239 233.441 50.6162 232.589C58.0557 231.905 65.5316 231.699 72.9975 231.973C74.1175 232.018 83.9138 232 94.0237 231.776C95.2855 231.746 97.6301 226.758 98.877 226.724C100.337 226.683 100.706 231.578 102.11 231.548C110.372 231.253 117.211 230.779 117.417 230.054C117.577 229.435 118.847 212.28 119 209.23H119.261L119.003 198.777L130.551 200.587C129.057 225.336 127.463 257.942 129.199 262.505H141.713C137.043 266.731 113.833 286.361 124.387 285.565C133.571 284.884 142.785 284.68 151.991 284.953C153.369 284.994 165.457 284.976 177.927 284.755C179.483 284.725 182.377 279.738 183.922 279.7C185.729 279.663 186.181 284.576 187.917 284.524C198.105 284.233 206.539 283.777 206.774 283.03C206.987 282.366 208.786 262.549 208.742 261.75H208.667C209.171 257.442 208.514 235.244 208.368 221.005C208.831 222.472 250.028 221.565 254.199 221.565C281.452 221.565 288.919 203.91 293.671 180.782C298.207 158.755 303.337 125.715 303.624 118.26C303.997 108.288 294.455 99.496 283.908 98.1707C274.575 96.9985 245.702 96.7894 235.64 97.6966C222.163 71.1601 207.644 64.6827 198.18 67.8001C198.098 65.9894 197.948 64.1937 197.732 62.4502C197.235 58.4742 196.866 52.7099 196.612 47.1435C197.81 47.2854 197.332 47.3899 198.598 47.3899C201.76 47.3899 205.505 30.5899 206.472 27.2897C208.114 21.6897 207.345 14.4918 202.634 10.8817C196.321 6.02833 177.781 -0.923144 170.971 1.86939C159.271 6.66299 163.15 16.3547 170.841 18.7963C168.287 21.559 165.939 25.2513 164.031 29.7649C163.001 29.0054 161.753 28.5971 160.473 28.6001C158.826 28.6001 157.246 29.2546 156.081 30.4196C154.915 31.5846 154.261 33.1647 154.261 34.8123C154.261 36.4599 154.915 38.04 156.081 39.2051C157.246 40.3701 158.826 41.0246 160.473 41.0246C160.537 41.0246 160.596 41.0246 160.66 41.0246C159.799 45.4131 159.332 49.8697 159.264 54.3414C159.088 63.6747 173.824 63.8315 173.846 64.1862C174.219 67.1729 176.919 76.0433 177.635 81.5201C173.861 79.5638 166.809 78.5334 152.473 81.1841L138.861 83.7078C137.788 82.9113 136.783 82.0272 135.856 81.0646C131.226 76.3457 136.935 66.4635 126.578 63.1707C126.478 62.648 126.384 62.1105 126.306 61.5654L121.329 31.471C120.922 30.239 120.388 27.0955 116.991 27.4801L100.796 29.6267C95.3378 30.2614 96.2898 33.5355 97.0626 38.1686L98.4999 47.823C93.1725 48.8833 98.6642 60.2774 99.2989 62.2747C95.3863 54.1137 92.8029 61.6438 95.8045 69.3382C98.4887 76.2225 100.378 82.2481 107.232 89.5467L55.9138 99.0518L56.7986 103.017C42.5821 105.059 29.7357 112.6 23.6354 121.933L9.13139 119.619L8.11966 124.304L21.2535 126.518C20.2852 128.93 19.8264 131.517 19.9058 134.115C20.0626 138.304 24.5202 136.77 24.7591 139.189C25.2594 144.569 31.9234 144.304 32.5245 140.753C32.4535 141.082 31.5837 146.838 33.4167 149.041C35.5933 151.654 39.7111 152.117 41.5143 146.495C41.4748 146.707 41.4498 146.922 41.4397 147.137L46.2706 132.872ZM129.487 121.317L143.931 130.121C141.288 136.068 139.028 142.178 137.166 148.414C134.553 143.023 132.178 137.867 131.674 136.777C129.242 131.692 126.19 126.927 122.587 122.59L129.487 121.317ZM208.349 220.997C208.323 218.455 208.316 216.166 208.349 214.277L209.843 214.393L208.349 220.997Z" fill="white"/>
<path d="M182.127 35.9098C182.103 34.5587 181.681 33.2447 180.913 32.1327C180.146 31.0207 179.066 30.1603 177.811 29.6595C176.556 29.1587 175.181 29.0398 173.859 29.3178C172.537 29.5958 171.326 30.2582 170.379 31.2219C169.431 32.1856 168.79 33.4077 168.535 34.7347C168.28 36.0616 168.422 37.4344 168.945 38.6806C169.467 39.9268 170.346 40.991 171.471 41.7394C172.596 42.4878 173.917 42.8872 175.269 42.8874C177.103 42.8697 178.855 42.125 180.141 40.8169C181.426 39.5088 182.141 37.744 182.127 35.9098ZM175.269 41.3567C174.187 41.3805 173.122 41.0813 172.211 40.4974C171.299 39.9135 170.583 39.0713 170.152 38.0784C169.721 37.0854 169.596 35.9866 169.793 34.9223C169.989 33.8579 170.498 32.8763 171.255 32.1025C172.012 31.3287 172.982 30.798 174.042 30.5779C175.102 30.3579 176.203 30.4586 177.205 30.8671C178.207 31.2756 179.065 31.9735 179.669 32.8716C180.273 33.7698 180.596 34.8275 180.596 35.9098C180.603 36.6183 180.47 37.3211 180.206 37.9783C179.941 38.6354 179.549 39.234 179.053 39.7398C178.557 40.2456 177.966 40.6487 177.314 40.9262C176.662 41.2036 175.962 41.3499 175.254 41.3567H175.269Z" fill="#38474F"/>
<path d="M11.5134 95.5723C2.44138 102.931 2.88565 104.906 5.49524 109.587C6.38705 111.096 7.1513 112.677 7.78004 114.314L9.21737 113.784C8.56361 112.074 7.77073 110.421 6.8467 108.841C4.63284 104.876 3.96084 103.681 12.4915 96.7633C15.1048 94.6353 16.4376 92.4998 16.5384 90.2262C16.7139 86.295 13.2307 82.9089 9.54217 79.3211C5.85364 75.7334 1.99337 71.9814 2.37417 67.871C2.65417 64.8246 5.18164 61.7558 10.0947 58.4891C16.8408 54.0091 14.7427 49.0251 12.708 44.2091C11.6739 41.7563 10.6062 39.2177 10.6062 36.6379H9.0755C9.0755 39.5275 10.1955 42.2118 11.2968 44.8065C13.3278 49.6225 14.9294 53.4305 9.23977 57.2123C3.91604 60.7553 1.16831 64.1937 0.839782 67.7291C0.391783 72.5825 4.49844 76.5585 8.46697 80.4225C11.9016 83.7825 15.1459 86.9185 15.0003 90.1628C14.9182 91.966 13.7795 93.7393 11.5134 95.5723Z" fill="#38474F"/>
<path d="M85.5266 239.937C85.0973 243.98 85.045 249.535 85.045 253.918V254.467C85.045 257.054 85.045 258.357 85.8925 259.163C86.4413 259.682 87.2066 259.843 88.3826 259.843C88.7559 259.843 89.1517 259.843 89.5959 259.805C90.253 259.768 91.1751 259.764 92.1495 259.761C93.4065 259.786 94.664 259.744 95.9164 259.634C98.7351 259.26 99.5191 258.648 99.7244 256.699C99.7244 256.595 99.9895 241.613 99.7804 240.448C99.198 237.219 97.3127 237.264 93.5607 237.349L92.4706 237.372C91.8471 237.372 91.2386 237.372 90.645 237.334C88.3863 237.226 85.8066 237.125 85.5266 239.937Z" fill="#EC4E47"/>
<path d="M95.8044 263.229C95.2146 263.229 94.5463 263.229 93.8183 263.177C89.4503 262.915 86.9676 263.318 85.7729 264.487C85.4484 264.83 85.2022 265.239 85.0513 265.686C84.9005 266.134 84.8486 266.609 84.8994 267.078C85.0151 270.065 84.9442 275.739 84.8994 279.502C84.877 281.414 84.8583 282.803 84.8732 283.236C84.8736 283.434 84.9133 283.63 84.9903 283.813C85.0672 283.995 85.1797 284.161 85.3212 284.3C86.2023 285.181 88.166 285.173 90.8876 285.166C91.5783 285.166 92.2914 285.166 93.0007 285.166H93.0492C93.4711 285.166 93.9079 285.166 94.3484 285.166C97.1372 285.166 100.057 284.793 100.322 281.623C100.617 278.061 100.564 270.423 100.4 266.753C100.24 263.248 98.1825 263.236 95.8044 263.229Z" fill="#EC4E47"/>
<path d="M95.8083 71.5333C98.0782 77.4506 100.135 82.8117 105.709 89.0538L55.7758 98.3013L54.9955 98.4431L55.8728 102.389C46.3304 103.912 36.9896 107.989 30.1128 113.686C27.4885 115.826 25.1774 118.323 23.2472 121.104L8.52671 118.756L7.20511 124.92L20.212 127.115C19.4262 129.371 19.063 131.753 19.1406 134.141C19.2488 137.05 21.2275 137.748 22.5342 138.211C23.6168 138.584 23.9379 138.774 23.9827 139.252C24.2814 142.485 26.6147 144.012 28.7912 144.106C29.7374 144.151 30.6761 143.918 31.4904 143.434C31.4232 145.468 31.6099 148.093 32.812 149.538C33.3114 150.179 33.9452 150.703 34.6689 151.073C35.3926 151.444 36.1885 151.651 37.0008 151.68C37.3097 151.681 37.6177 151.647 37.9192 151.58C39.0094 151.341 40.9059 150.434 42.0856 147.144H42.1902C42.1953 146.999 42.2115 146.854 42.2387 146.711C42.3022 146.502 42.3694 146.286 42.4291 146.058H42.3582C42.9144 143.202 44.699 136.15 45.244 135.187C46.3118 133.286 48.4622 132.282 49.8472 132.446C50.169 132.462 50.4777 132.579 50.7295 132.78C50.9814 132.981 51.1638 133.256 51.251 133.566C51.251 134.231 51.139 138.349 48.3614 141.619C46.1811 144.184 46.5544 146.521 47.5326 147.746C47.9003 148.196 48.3664 148.557 48.8951 148.8C49.4238 149.042 50.0011 149.161 50.5827 149.146C51.4777 149.132 52.3562 148.903 53.1438 148.477C57.3102 146.293 58.6019 143.277 59.972 140.088C60.8008 138.155 61.6595 136.161 63.2387 134.261L74.7113 132.159C72.1762 138.114 70.0227 144.224 68.2638 150.452C65.5384 160.185 58.8819 201.248 61.8536 209.066L62.0403 209.555H63.6046L62.6376 210.611C52.7032 221.438 46.3902 229.278 47.8611 232.238C48.2344 232.985 48.9998 233.358 50.1384 233.358C50.3102 233.358 50.5118 233.358 50.6835 233.332C56.5973 232.793 62.5348 232.555 68.4728 232.619C65.9118 233.011 62.7235 234.161 62.4995 238.316C62.0328 246.866 62.1822 258.749 62.3278 270.244C62.3875 275.153 62.4472 279.79 62.4547 283.967V284.341C62.4547 287.592 62.4547 289.941 67.1662 290.112C69.3054 290.191 71.9262 290.232 74.8046 290.232C79.5123 290.232 84.9182 290.127 90.044 289.93C102.525 289.452 104.343 288.888 104.697 288.287C104.734 288.242 104.766 288.195 104.794 288.145C105.754 286.491 105.709 269 105.642 261.56C105.563 252.447 105.239 236.494 104.522 234.493C103.738 232.32 100.064 231.809 95.3379 231.88C95.9798 231.203 96.5631 230.472 97.0814 229.696C97.6152 228.949 98.4888 227.736 98.8958 227.516C99.187 227.74 99.5939 228.841 99.8179 229.446C100.348 230.879 100.897 232.347 102.148 232.32C117.76 231.764 117.951 231.025 118.152 230.241C118.376 229.367 119.399 214.449 119.69 209.999H120.038L119.78 199.661L129.729 201.218C128.236 225.754 126.668 258.017 128.471 262.762L128.662 263.255H139.694L139.399 263.516C127.411 274.119 119.705 281.832 121.049 285.013C121.423 285.894 122.349 286.338 123.808 286.338C124.006 286.338 124.215 286.338 124.432 286.316C133.59 285.636 142.778 285.432 151.958 285.703C153.354 285.748 165.457 285.726 177.93 285.506C179.05 285.483 180.17 284.199 181.499 282.713C182.19 281.933 183.478 280.473 183.93 280.451C184.337 280.451 184.908 281.705 185.251 282.452C185.89 283.859 186.566 285.323 187.925 285.274C207.017 284.725 207.248 284.001 207.491 283.239C207.816 282.213 209.499 261.832 209.492 261.702L209.466 261.172C209.589 259.619 209.63 256.792 209.585 251.588H215.219L220.207 284.998C219.139 285.849 217.858 286.913 217.619 287.186C218.396 287.066 224.821 287.439 224.75 287.186C225.478 287.186 226.408 287.227 227.308 287.249L227.681 287.309V287.26C229.226 287.301 230.589 287.316 230.555 287.197C230.47 286.898 228.939 285.371 228.088 284.49L232.676 253.354H279.261L285.141 284.576C284.274 285.468 282.837 286.906 282.755 287.189C282.673 287.473 289.102 287.074 289.886 287.189C289.598 286.861 287.806 285.394 286.69 284.52L274.127 217.824C277.534 215.925 280.536 213.377 282.964 210.324C289.374 202.346 292.353 190.989 294.422 180.935C299.032 158.535 304.128 125.588 304.39 118.286C304.763 108.404 295.43 98.8426 284.006 97.409C275.117 96.289 246.926 95.9978 236.085 96.8863C230.037 85.0741 223.417 76.5023 216.388 71.3877C210.414 67.0346 204.239 65.4144 198.897 66.8032C198.811 65.2688 198.677 63.7754 198.501 62.3642C198.031 58.6309 197.676 53.2661 197.437 48.0842C197.824 48.1621 198.219 48.1922 198.613 48.1738C201.316 48.1738 203.657 41.2186 206.561 30.0037C206.845 28.9061 207.069 28.0362 207.222 27.521C208.85 21.9845 208.256 14.2304 203.115 10.288C196.843 5.48316 177.878 -1.76698 170.695 1.17489C163.628 4.07195 162.732 8.31675 162.825 10.5904C162.967 14.1296 165.678 17.5082 169.545 19.1359C168.334 20.5689 167.241 22.097 166.275 23.7056C165.318 25.2987 164.462 26.9509 163.714 28.6522C162.723 28.1085 161.611 27.8234 160.481 27.8234C158.712 27.8539 157.021 28.5542 155.748 29.7831C154.476 31.012 153.717 32.6779 153.625 34.4444C153.533 36.211 154.115 37.9466 155.253 39.301C156.391 40.6553 158.001 41.5274 159.757 41.7413C158.994 45.8886 158.575 50.0915 158.502 54.3077C158.345 62.8234 169.153 64.257 172.689 64.7312L173.159 64.7946C173.391 66.1946 173.928 68.3525 174.541 70.8053C175.317 73.9151 176.179 77.3797 176.661 80.2357C172.48 78.6229 165.308 77.9957 152.327 80.4149L139.051 82.8714C138.107 82.1536 137.218 81.3649 136.393 80.5119C134.769 78.8506 134.56 76.368 134.344 73.736C133.989 69.4725 133.597 64.7759 127.25 62.5695C127.183 62.1962 127.116 61.8229 127.06 61.4495L122.083 31.3253L122.054 31.2058C122.013 31.0863 121.975 30.952 121.93 30.7989C121.527 29.4474 120.59 26.2778 116.887 26.6922L100.703 28.8351C98.6606 29.0741 97.2867 29.6975 96.5027 30.7429C95.2894 32.3706 95.6888 34.6965 96.1555 37.3882C96.204 37.6719 96.2563 37.9669 96.3048 38.2469L97.6264 47.2666C96.9131 47.5487 96.3258 48.079 95.9726 48.7599C94.7518 50.9999 95.7448 54.9013 96.876 58.0933C96.6573 57.9991 96.4216 57.9505 96.1835 57.9505C95.9453 57.9505 95.7097 57.9991 95.491 58.0933C93.2995 59.0453 93.0979 64.5221 95.0728 69.5882C95.323 70.2602 95.5656 70.8986 95.8083 71.5333ZM96.1032 59.5343C96.1267 59.5298 96.1507 59.5298 96.1742 59.5343C96.484 59.5343 97.3576 60.057 98.5822 62.6031C99.1369 64.0707 99.7777 65.5043 100.501 66.8965C100.841 67.5536 101.195 68.2218 101.569 68.8901C101.632 69.0021 101.696 69.1103 101.755 69.2223L102.607 70.9957L103.353 72.5823L102.932 71.2533C103.869 72.8026 104.858 74.3183 105.832 75.7333L106.355 76.4799C106.53 76.7301 106.71 76.9765 106.885 77.2266C107.326 77.8277 107.759 78.3989 108.177 78.929C108.229 79.0797 108.32 79.2136 108.442 79.3167C108.563 79.4198 108.71 79.4884 108.868 79.5151L109.211 78.0218C109.306 78.0542 109.392 78.1071 109.463 78.1768C109.535 78.2466 109.59 78.3313 109.625 78.425C109.573 78.268 109.493 78.1213 109.39 77.9919C109.133 77.6671 108.868 77.3199 108.602 76.9653C108.434 76.7413 108.263 76.5173 108.091 76.2821C107.919 76.0469 107.762 75.8266 107.598 75.5951C105.515 72.6785 103.634 69.6225 101.968 66.4485C101.565 65.6719 101.192 64.9066 100.848 64.1674C100.505 63.4282 100.221 62.7263 99.9747 62.0543C99.9 61.8266 99.7843 61.5205 99.6238 61.121C99.5715 60.9829 99.5118 60.8335 99.4446 60.6693C98.4067 58.056 95.9763 51.9557 97.2904 49.5365C97.4206 49.2918 97.6075 49.0819 97.8355 48.9242C98.0622 48.777 98.3161 48.6767 98.5822 48.6293H98.6195C98.8683 48.5784 99.1261 48.5951 99.3662 48.6778C100.359 49.0288 101.087 50.5445 101.916 52.5679C102.289 54.5466 105.649 60.0981 109.211 65.8287C109.681 66.5754 110.126 67.2959 110.189 67.4191C110.144 67.3207 110.121 67.2137 110.122 67.1055H111.653C111.653 66.8479 111.653 66.8479 110.51 65.0186C109.144 62.8271 106.131 57.9925 104.5 54.8341C104.497 54.7055 104.469 54.5787 104.417 54.4608C103.047 51.2426 102.666 48.4874 103.473 47.6437C104.078 46.9978 105.5 47.3189 106.586 47.7034C107.438 48.0469 110.096 52.512 112.231 56.096C115.076 60.8746 118.302 66.2879 120.93 68.9647C121.078 69.1256 121.217 69.2938 121.348 69.4687C121.755 69.9839 122.259 70.6224 122.923 70.9098C122.994 70.9608 123.076 70.9947 123.162 71.0089C123.248 71.0232 123.337 71.0174 123.42 70.9919L126.444 70.5327L123.7 69.5621C122.393 68.345 118.716 63.8799 119.078 62.9727C119.244 62.9032 119.426 62.88 119.605 62.9055C121.73 62.9529 123.843 63.2498 125.899 63.7903C126.186 63.8725 126.466 63.9583 126.731 64.0479C126.997 64.1375 127.31 64.2645 127.579 64.3802C132.182 66.3701 132.492 70.0623 132.806 73.9114C133.037 76.6965 133.276 79.5786 135.288 81.6319C135.919 82.2741 136.502 82.8191 137.054 83.2895C137.319 83.5173 137.577 83.7263 137.827 83.9242C138.077 84.1221 138.394 84.3535 138.671 84.5477C139.641 85.2309 140.556 85.7498 141.538 86.3098C142.397 86.7952 143.278 87.2954 144.293 87.9637L132.41 111.23L116.472 96.8714L116.428 96.8341C113.72 94.7648 111.151 92.52 108.737 90.1141L108.095 89.4533C107.886 89.2293 107.673 89.009 107.471 88.7887C101.584 82.4159 99.5155 77.025 97.2232 71.0517C96.9806 70.417 96.7379 69.7786 96.4766 69.1327C94.5203 63.9807 95.2595 59.8928 96.1032 59.5269V59.5343ZM99.9262 36.145C99.3774 36.1786 98.8958 35.5925 98.851 34.8346C98.8062 34.0767 99.2243 33.4309 99.7544 33.3935C100.285 33.3562 100.781 33.9461 100.83 34.7039C100.878 35.4618 100.471 36.1002 99.9262 36.1375V36.145ZM177.079 82.0911C177.517 82.3101 177.939 82.5596 178.341 82.8378C179.029 83.3119 179.647 83.8799 180.178 84.5253C180.627 85.0906 181.031 85.6911 181.384 86.321C182.071 87.4746 182.717 88.561 184.139 88.561C184.512 88.561 184.833 88.561 185.136 88.5423C185.946 88.4795 186.761 88.545 187.551 88.7365C187.689 90.0058 187.925 91.6373 188.275 93.5039C188.328 93.7877 188.38 94.0789 188.436 94.3738L188.593 95.2138C190.068 102.942 192.625 113.574 194.249 119.365L145.45 86.8101C144.263 86.0186 143.233 85.4287 142.314 84.9098C141.825 84.6298 141.351 84.361 140.877 84.0773L152.618 81.9007C166.525 79.3359 173.406 80.2693 177.079 82.0911ZM174.604 64.0666C174.526 63.4207 174.048 63.3573 172.894 63.2042C169.676 62.7786 159.891 61.4757 160.025 54.3301C160.093 50.096 160.524 45.8755 161.313 41.7151C162.634 41.5275 163.874 40.9663 164.886 40.0976C165.899 39.229 166.642 38.0891 167.029 36.8122C167.415 35.5353 167.428 34.1746 167.067 32.8903C166.706 31.606 165.986 30.4516 164.991 29.5631C166.496 25.9561 168.559 22.6077 171.102 19.6399C175.504 20.6106 185.263 23.2538 186.345 24.3663C186.674 26.0762 186.315 28.7717 185.931 31.6202C185.184 37.2202 184.408 43.0069 188.302 44.3807C189.225 44.7514 190.114 45.201 190.96 45.7247C192.52 46.6245 194.133 47.5466 195.88 47.7109C196.123 53.0645 196.489 58.6495 196.974 62.5434C197.165 64.0815 197.299 65.6682 197.385 67.2736C190.064 70.0176 185.95 78.1562 187.305 87.1087C186.578 86.9966 185.841 86.9616 185.106 87.0042C184.815 87.0042 184.501 87.0042 184.146 87.0042C183.642 87.0042 183.366 86.6309 182.709 85.5109C181.918 84.1743 180.842 82.3861 178.345 80.9898C177.901 77.8949 176.915 73.9301 176.038 70.4133C175.347 67.6917 174.757 65.3247 174.604 64.0666ZM160.473 29.3466C161.393 29.3491 162.295 29.5966 163.087 30.0634C163.312 30.1925 163.527 30.3398 163.729 30.5039C163.95 30.6801 164.158 30.8736 164.349 31.0826C165.273 32.097 165.785 33.4209 165.782 34.7935C165.789 36.0161 165.383 37.2052 164.631 38.1686C163.878 39.132 162.822 39.8133 161.634 40.1023C161.36 40.163 161.082 40.2029 160.802 40.2218C160.69 40.2218 160.574 40.2218 160.458 40.2218C160.343 40.2218 160.178 40.2218 160.04 40.2031C158.682 40.0374 157.435 39.3666 156.548 38.3239C155.661 37.2812 155.199 35.943 155.254 34.5753C155.308 33.2076 155.876 31.9104 156.843 30.9417C157.81 29.973 159.106 29.4036 160.473 29.3466ZM236.148 100.444C236.454 101.075 236.764 101.717 237.07 102.359L237.514 103.289C237.66 103.599 237.809 103.909 237.959 104.222C244.01 116.957 250.297 131.158 255.905 143.829C258.802 150.37 261.546 156.579 263.808 161.544H236.383C239.908 151.636 236.353 134.925 233.904 123.427C233.415 121.116 232.96 118.976 232.613 117.14C232.523 116.654 232.437 116.188 232.362 115.743C232.277 115.224 232.198 114.735 232.138 114.287C232.094 113.951 232.056 113.634 232.026 113.343V113.291C230.555 104.487 226.55 97.7039 220.125 93.1306C212.789 87.9039 203.81 86.5599 197.224 86.4106H196.399H195.593C193.326 86.4147 191.061 86.5631 188.813 86.8549C187.637 78.8469 191.139 71.5855 197.459 68.9349C197.708 68.8303 197.957 68.7333 198.206 68.6437L198.333 68.5951C198.538 68.5242 198.747 68.4645 198.957 68.4047C208.301 65.7242 222.768 72.7727 236.144 100.452L236.148 100.444ZM207.973 260.977C207.954 261.276 207.931 261.53 207.905 261.724H129.759C128.359 255.9 129.804 225.481 131.253 201.457L131.297 200.688C131.297 200.434 131.331 200.176 131.346 199.923C132.093 187.58 132.839 177.149 133.164 172.983C133.709 165.968 135.169 158.3 137.357 150.546C137.461 150.172 137.566 149.799 137.674 149.444C137.782 149.09 137.887 148.72 137.995 148.358C139.742 142.525 141.842 136.804 144.282 131.226C144.383 130.99 144.491 130.755 144.595 130.52L144.905 129.814C145.652 128.169 146.421 126.551 147.213 124.961C147.541 124.296 147.875 123.638 148.213 122.986C148.542 122.348 148.874 121.72 149.21 121.097C149.708 120.161 150.22 119.235 150.748 118.319C154.9 111.066 160.119 107.515 166.26 107.795C179.327 108.374 193.23 125.626 198.516 137.106C199.151 138.491 202.126 144.878 205.008 150.818C208.017 157.004 209.623 160.073 210.563 161.589C210.765 161.906 210.937 162.16 211.079 162.335C211.489 162.888 211.725 163.015 211.93 163.037C211.987 163.043 212.045 163.043 212.102 163.037H213.595H234.046H235.763L264.51 163.056C264.521 163.081 264.529 163.108 264.536 163.134C268.714 175.204 267.217 187.864 260.572 196.294C252.918 206 239.041 210.059 220.457 207.99H209.63C209.671 207.057 209.63 205.433 209.488 202.435C209.212 195.872 208.701 183.653 210.918 181.342C210.982 181.26 211.062 181.194 211.155 181.147C211.247 181.1 211.349 181.075 211.452 181.073V179.542C211.142 179.547 210.836 179.615 210.554 179.744C210.272 179.872 210.02 180.058 209.813 180.289C207.345 182.861 207.528 192.266 207.946 202.506C208.055 205.071 208.167 207.714 208.055 208.375C207.793 208.812 207.637 209.969 207.592 213.434C207.592 213.676 207.592 213.934 207.592 214.203C207.592 214.471 207.592 214.703 207.592 214.949C207.592 218.959 207.659 225.358 207.846 235.613C207.928 240.314 208.025 245.495 208.07 250.024C208.07 250.543 208.07 251.054 208.07 251.555C208.1 255.773 208.085 259.234 207.969 260.977H207.973ZM124.286 165.494H124.26C122.924 165.494 122.046 167.588 120.9 171.445C120.825 171.699 120.739 171.99 120.713 172.053C119.773 174.375 119.052 185.071 118.279 197.873H118.205L118.458 208.024H65.292H64.8888H63.1267C60.8606 199.811 66.7891 161.395 69.7384 150.867C71.5691 144.376 73.8329 138.015 76.5144 131.827C76.6376 131.543 76.7608 131.263 76.8878 130.983C77.0147 130.703 77.1342 130.415 77.2611 130.135C79.1091 125.999 81.1139 122.027 83.2344 118.331C87.3859 111.077 92.6051 107.53 98.7427 107.806C106.609 108.154 114.796 114.549 121.191 122.086L121.755 122.758C121.942 122.986 122.128 123.21 122.311 123.438C125.735 127.628 128.646 132.213 130.98 137.094C131.536 138.296 133.855 143.288 136.352 148.485C133.873 156.896 132.223 165.255 131.63 172.867C131.603 173.173 130.737 184.814 129.819 199.684L119.788 198.112C120.355 188.674 121.199 174.906 122.121 172.628C122.169 172.509 122.229 172.311 122.356 171.882C123.301 168.697 123.875 167.558 124.193 167.166C124.336 167.472 124.447 167.793 124.521 168.122L126.015 167.749C125.862 167.136 125.455 165.516 124.286 165.494ZM56.836 99.6602L106.937 90.3791C109.594 93.119 112.451 95.6584 115.483 97.9765L131.693 112.6L127.277 120.88L127.385 120.944L122.905 121.769C116.151 113.671 107.344 106.649 98.8211 106.276C92.06 105.973 86.3742 109.774 81.9166 117.569C79.5389 121.751 77.383 126.055 75.4579 130.464L64.1534 132.514L56.836 99.6602ZM132.88 113.649L133.332 112.768L146.025 89.0202L193.398 120.619C195.369 122.165 208.902 131.52 210.015 132.084C210.426 132.306 210.821 132.555 211.198 132.831C212.124 133.484 213.173 134.22 214.495 134.22V132.689C213.658 132.689 212.893 132.151 212.079 131.569C211.643 131.245 211.184 130.953 210.705 130.695C209.585 130.12 200.431 123.751 196.295 120.813C194.801 115.9 191.841 103.875 190.187 95.2959C190.135 95.0383 190.09 94.7882 190.041 94.5493C189.993 94.3103 189.944 94.0378 189.9 93.8026C189.578 92.0554 189.325 90.4986 189.153 89.2367C189.115 88.9194 189.078 88.617 189.052 88.3407H189.078C191.061 88.1066 193.055 87.9819 195.051 87.9674H195.873H196.717C203.149 88.0831 212.105 89.3114 219.221 94.3813C225.292 98.7082 229.085 105.148 230.488 113.518C230.582 114.478 230.765 115.65 231.007 116.975C231.086 117.416 231.175 117.875 231.269 118.349C231.362 118.823 231.444 119.234 231.537 119.697C231.799 120.966 232.086 122.31 232.389 123.751C234.849 135.299 238.448 152.214 234.744 161.544H214.211H212.344C210.851 159.718 203.601 144.505 199.905 136.482C194.462 124.662 180.025 106.888 166.327 106.287C159.723 105.996 154.138 109.617 149.729 117.054L149.419 117.58C149.188 117.987 148.96 118.398 148.728 118.808C148.392 119.413 148.056 120.022 147.728 120.638C146.272 123.356 144.89 126.167 143.591 129.042L131.607 121.739L130.625 121.142L129.644 120.541L129.304 120.335L132.862 113.668L132.88 113.649ZM142.96 130.423C140.684 135.608 138.698 140.917 137.013 146.323C135.299 142.739 133.631 139.181 132.376 136.452C130.101 131.695 127.283 127.216 123.98 123.106L129.341 122.124L142.96 130.423ZM22.3736 122.512L24.0462 122.777L28.0632 123.427L29.6499 123.68L35.78 124.647L34.66 128.007L28.2835 126.932L26.7528 126.675L22.3587 125.928L20.7758 125.663L9.04938 123.684L9.74004 120.492L22.3736 122.512ZM23.0531 136.777C21.7651 136.325 20.7496 135.963 20.6787 134.093C20.608 131.803 20.9794 129.522 21.7726 127.373L26.2824 128.119C25.4009 131.12 24.7077 134.172 24.2067 137.259C23.8319 137.07 23.4438 136.909 23.0456 136.777H23.0531ZM28.8584 142.575C27.3987 142.523 25.7598 141.593 25.5171 139.159C25.5358 138.084 26.4915 132.79 27.8094 128.403L34.5816 129.546C32.9614 133.824 31.7854 138.334 31.7555 140.667C31.5016 141.981 30.1128 142.627 28.851 142.575H28.8584ZM62.5518 132.7C60.5096 134.94 59.524 137.24 58.572 139.461C57.2579 142.523 56.123 145.166 52.4382 147.096C50.7656 147.977 49.3731 147.566 48.7347 146.767C48.0963 145.968 47.9619 144.442 49.5336 142.59C52.9496 138.573 52.7966 133.604 52.7854 133.395V133.301L52.763 133.212C52.6015 132.593 52.2526 132.039 51.764 131.626C51.2755 131.213 50.6712 130.961 50.0339 130.904C47.8574 130.654 45.1806 132.192 43.9187 134.418C43.2392 135.627 41.2531 143.49 40.7752 146.293C40.0734 148.447 38.9608 149.788 37.6019 150.086C36.3848 150.355 34.9886 149.765 33.9992 148.559C32.5544 146.82 33.0771 142.022 33.2526 141.026C33.2526 140.981 33.2712 140.936 33.2787 140.887L32.6254 140.76H33.2899C33.2899 136.654 37.7475 123.718 40.9582 121.078L39.9875 119.895C39.155 120.578 38.2739 121.81 37.404 123.356L29.7694 122.139L29.2504 121.642C29.1406 121.761 29.0371 121.885 28.9406 122.015L24.9982 121.384C31.0424 112.958 42.7987 105.996 56.22 103.89L62.66 132.79L62.5518 132.7ZM67.2296 288.582C63.9928 288.466 63.9928 287.592 63.9928 284.341V283.967C63.9928 279.782 63.9256 275.142 63.8659 270.229C63.7203 258.76 63.571 246.899 64.0339 238.402C64.2131 235.094 66.6472 234.243 70.515 233.944C72.4451 233.799 74.7747 233.754 77.164 233.754C78.6574 233.754 80.1507 233.773 81.6142 233.788C79.5944 235.886 79.6542 239.802 79.7064 243.143C79.7064 243.677 79.7064 244.204 79.7064 244.711C79.7064 246.108 79.7064 277.191 79.6616 278.763C79.5608 284.55 79.6169 287.294 80.2179 288.645C75.5438 288.731 70.9331 288.72 67.2222 288.582H67.2296ZM103.07 235.012C103.533 236.304 103.977 247.605 104.1 261.306C104.234 276.269 103.917 285.375 103.521 287.156L103.383 287.182L103.35 287.361C101.632 287.865 92.5976 288.391 83.1374 288.604C82.9134 288.559 82.7043 288.522 82.5176 288.496C81.7187 288.373 81.6328 288.362 81.4499 287.551C81.1736 286.353 81.099 283.9 81.1886 278.808C81.2184 277.169 81.2371 245.04 81.2371 244.726C81.2371 244.211 81.2371 243.677 81.2371 243.132C81.155 237.831 81.3976 234.06 85.3102 233.844H86.18C86.9752 233.844 88.1587 233.765 89.54 233.676C93.6803 233.399 102.293 232.813 103.081 235.012H103.07ZM209.567 250.057C209.529 246.388 209.455 241.68 209.346 235.621C209.264 231.208 209.178 226.373 209.13 222.05C209.559 222.125 210.123 222.196 210.858 222.259L214.988 250.057H209.567ZM226.505 284.595C225.788 285.155 224.847 285.92 224.179 286.487C223.309 285.517 221.685 283.941 221.693 283.852C221.647 283.87 221.604 283.895 221.566 283.926L212.434 222.36C215.099 222.509 219.288 222.595 225.908 222.595C228.7 222.595 231.933 222.595 235.659 222.547L226.505 284.595ZM278.951 251.808H232.9L237.212 222.535C240.781 222.502 244.783 222.453 249.274 222.386C251.723 222.349 253.493 222.323 254.195 222.323C261.426 222.323 267.564 221.083 272.705 218.563L278.951 251.808ZM283.804 98.9247C294.481 100.265 303.217 109.102 302.844 118.222C302.56 125.472 297.502 158.27 292.902 180.621C290.871 190.496 287.959 201.636 281.754 209.368C279.365 212.368 276.392 214.852 273.015 216.67L272.358 216.794L272.395 216.995C267.381 219.545 261.341 220.799 254.18 220.799C253.467 220.799 251.694 220.826 249.237 220.863C246.34 220.904 241.636 220.975 236.443 221.02L235.887 220.941V221.027C224.743 221.124 211.583 221.113 209.13 220.531C209.111 218.548 209.1 216.711 209.108 215.11L209.854 215.166H209.914C211.717 215.166 214.584 215.196 217.903 215.226C222.432 215.27 227.782 215.323 232.377 215.323C233.96 215.323 235.454 215.323 236.794 215.3C248.367 215.173 254.927 214.274 260.904 209.491L263.088 207.748C264.648 206.591 266.092 205.286 267.4 203.85C267.859 203.376 268.423 202.794 269.143 202.062C280.026 190.959 290.024 151.311 293.309 138.282C295.501 129.594 297.614 117.072 290.696 108.658C287.888 105.238 284.024 103.845 277.428 102.337C271.891 101.068 248.016 100.9 238.384 101.553C238.101 100.963 237.821 100.373 237.537 99.7909C237.305 99.313 237.074 98.8389 236.839 98.3685C248.005 97.5359 275.146 97.8383 283.804 98.9247Z" fill="#38474F"/>
</svg>
